<?xml version="1.0" encoding="UTF-8" standalone="no"?>
<!-- Creator: CorelDRAW -->

<svg
   xml:space="preserve"
   width="297mm"
   height="210mm"
   version="1.1"
   style="shape-rendering:geometricPrecision; text-rendering:geometricPrecision; image-rendering:optimizeQuality; fill-rule:evenodd; clip-rule:evenodd"
   viewBox="0 0 29700 21000"
   id="svg375"
   sodipodi:docname="shizuoka19.svg"
   inkscape:version="1.2.2 (732a01da63, 2022-12-09)"
   xmlns:inkscape="http://www.inkscape.org/namespaces/inkscape"
   xmlns:sodipodi="http://sodipodi.sourceforge.net/DTD/sodipodi-0.dtd"
   xmlns="http://www.w3.org/2000/svg"
   xmlns:svg="http://www.w3.org/2000/svg"><sodipodi:namedview
   id="namedview377"
   pagecolor="#ffffff"
   bordercolor="#000000"
   borderopacity="0.25"
   inkscape:showpageshadow="2"
   inkscape:pageopacity="0.0"
   inkscape:pagecheckerboard="0"
   inkscape:deskcolor="#d1d1d1"
   inkscape:document-units="mm"
   showgrid="false"
   inkscape:zoom="1.4426091"
   inkscape:cx="494.58997"
   inkscape:cy="385.75938"
   inkscape:window-width="2560"
   inkscape:window-height="1361"
   inkscape:window-x="2551"
   inkscape:window-y="-9"
   inkscape:window-maximized="1"
   inkscape:current-layer="Plan_x0020_1" />
 <defs
   id="defs196">
  <style
   type="text/css"
   id="style194">
   <![CDATA[
    .str1 {stroke:black;stroke-width:10;stroke-miterlimit:3.864;stroke-opacity:0.501961}
    .str3 {stroke:black;stroke-width:50;stroke-miterlimit:22.9256}
    .str5 {stroke:#434242;stroke-width:10;stroke-miterlimit:22.9256}
    .str2 {stroke:#3F3E3F;stroke-width:10;stroke-miterlimit:3.864}
    .str0 {stroke:black;stroke-width:10;stroke-miterlimit:22.9256}
    .str6 {stroke:#2B2A29;stroke-width:7.62;stroke-miterlimit:22.9256}
    .str4 {stroke:black;stroke-width:7.62;stroke-miterlimit:22.9256}
    .fil8 {fill:none}
    .fil2 {fill:#FEFEFE}
    .fil1 {fill:#EBECEC}
    .fil10 {fill:#D9DADA}
    .fil0 {fill:#A2D9F7}
    .fil6 {fill:#FEFEFE;fill-rule:nonzero}
    .fil5 {fill:#D9DADA;fill-rule:nonzero}
    .fil9 {fill:#434242;fill-rule:nonzero}
    .fil7 {fill:#2B2A29;fill-rule:nonzero}
    .fil4 {fill:black;fill-rule:nonzero}
    .fil3 {fill:#FEFEFE;fill-rule:nonzero;fill-opacity:0.501961}
   ]]>
  </style>

  </defs>
 <g
   id="Plan_x0020_1"
   inkscape:label="Plan 1">
  <metadata
   id="CorelCorpID_0Corel-Layer" />
  <rect
   class="fil0"
   x="999.99"
   y="1000"
   width="24355.21"
   height="19000"
   id="box" />
  <!-- 湖西市 -->
  <g id="kosai" title="湖西市" fill="rgb(60, 128, 74)">
    <path d="M2967.27 17035l0 0c25.41,43.92 63.61,71.66 78.92,115.9 20.97,60.57 52.42,96.47 117.32,108.24 57.19,10.38 31.86,19.73 47.49,67.18 7.61,23.08 119.98,10.63 109.87,33.59 -11.55,26.25 -50.22,25.31 -63.31,40.12 -12.62,14.26 26.55,50.88 35.38,59.72 49.85,49.97 127.48,108.23 202.05,108.23 0,27.28 -5.58,55.64 -5.58,83.98 -21.32,5.24 -88.71,-35.8 -111.74,-46.65 -175.43,-61.68 -450.96,-24.94 -634.09,-2.8 -38.89,4.7 -87.01,13.69 -131.59,15.7l0 0c-20.27,0.91 -39.81,0.39 -57.43,-2.64l-537.31 77.9 0 0c0.76,-21.3 2.49,-127.08 6.57,-126.42 0,-63.07 54.52,-135.51 64.25,-204.34 11.93,-84.34 12.68,-262.59 -25.14,-338.7 -19.08,-38.42 -68.33,-66.64 -79.14,-99.84 -11.41,-35.01 -19.56,-121.43 -19.56,-158.62 1.11,-17.97 -11.99,-58.15 -30.73,-64.39 -5.16,-20.9 10.7,-53.24 13.97,-75.57 9.4,-64.21 -51.57,-103.55 -63.31,-162.36 -9.76,-48.94 8.12,-85.04 19.55,-129.69 8.38,-32.77 8.72,-67.9 7.45,-102.64 -1.08,-29.34 -8.19,-44.36 4.65,-71.85 27.83,-59.59 11.69,-34.2 -11.17,-80.24 -13.75,-27.69 30.6,-85.41 40.04,-113.84 10.11,-20.98 68.28,-49.72 69.83,-55.98 27.63,0 105.56,-19.81 112.22,-55.61l0 0c104.74,91.63 188.09,216.1 314.23,274.89 96.11,44.8 211.68,13.06 317.52,19.59l0 0c-54.95,2.28 -86.02,33.12 -127.57,57.85 -21.91,52.8 11.58,108.51 -67.04,55.98 -56.94,-38.03 -63.84,15.92 -115.46,54.12 -19.04,14.08 -74.57,16.69 -43.76,47.58 10.56,10.6 77.31,-1.86 97.77,-1.86 71.52,0 108.67,-23.83 174.12,-39.19 30.21,-7.09 24.56,41.48 6.52,55.05 -19.31,14.51 -101.5,63.81 -101.5,87.71 65.23,16.04 124.12,-16.23 128.5,67.18 3.77,71.72 63.31,134.53 63.31,204.34l-0.93 0.93c-56.42,0 -126.87,-11.63 -180.63,6.54 0,95.24 -2.16,102.75 81,106.37 60.35,2.62 119.88,44.8 132.22,107.3l4.66 0c4.44,-13.43 59.03,-82.93 75.42,-77.45 30.46,10.17 53.64,89.27 67.04,121.3 4.07,12.26 9.26,23.27 15.12,33.39l0 0 0 0z" />
  </g>
  <!-- 富士宮市 -->
  <g id="hujinomiya" title="富士宮市" fill="rgb(60, 128, 74)">    
    <path d="M16020.42 7001.93c48.53,-60.9 -12.41,-129.12 1.86,-186.61 -19.06,-70.2 -51.21,-100.03 -51.21,-179.15 0,-117.26 -7.45,-235.54 10.24,-350.83 6.86,-44.77 -25.95,-80.02 -13.97,-121.3 11.97,-41.23 59.55,-79.79 81.94,-115.7 0,-80.66 -62.76,-127.26 -58.66,-204.35l8.38 -157.68c4.9,-92.28 123.85,-73.44 179.71,-142.76 60.35,-74.87 137.17,-137 174.12,-225.81 32.17,-25.54 17.9,-55.1 69.83,-53.18 25.56,0.95 49.5,-23.67 64.25,-41.99 26.23,-32.55 64.73,-13.32 94.04,-41.05 14.82,-14.03 70.07,-83.98 85.66,-83.98 0.38,1.14 0.73,1.49 1.87,1.87 17.76,71.83 81.81,151.62 156.43,170.75 98.8,25.34 62.24,112.9 81,188.48 -4.57,78 61.44,171.85 64.25,254.73 1.95,57.39 32.46,120.11 38.18,179.14 12.06,124.58 103.96,49.25 191.81,31.73l182.5 -36.39c62.47,-12.46 130.68,-0.89 192.74,-14 84.52,15.89 239.61,-9.29 278.4,97.97 48.3,133.52 64.2,276.82 98.7,415.22 7.35,43.31 1.3,102.59 13.97,140.89 42.07,0 88.57,6.53 132.22,6.53 75.07,0 144.21,-69.74 209.5,-101.7 53.11,-26.01 179.22,-25.14 237.43,-15.86 16.76,4.88 32.74,2.42 48.66,-3.26l0 0c11.75,37.8 23.5,75.6 35.25,113.4l0 0c31,86.8 62,173.6 93,260.4l0 0c-44.64,260.4 -53.69,529.48 -133.92,781.2 -22.64,71.05 -131.62,85.19 -163.68,152.52 -23.02,48.34 44.26,115.19 14.88,159.96 -18.58,28.31 -65.33,-60.44 -93,-40.92 -243.55,171.78 -469.34,370.29 -677.04,584.04 -22.22,22.87 12.91,62.49 18.28,93.93 0.73,4.29 -0.61,8.76 0,13.06 19.24,134.44 94.02,271.7 59.59,403.08 -14,53.44 -122.48,36.21 -165.74,1.87 -30.75,-24.41 46.07,-84.39 22.35,-115.7 -20.09,-26.52 -72.41,-5.46 -98.7,14.93 -68.88,53.42 -159.39,109.88 -173.19,195.94 -15.64,97.48 119.52,183.84 96.84,279.92 -13.33,56.47 -83.38,-126.45 -137.81,-106.37 -95.88,35.37 -99.19,224.11 -201.12,231.4 -87.33,6.25 -91.11,-156.59 -163.88,-205.27 -69.64,-46.59 -161.62,-44.34 -242.42,-66.51l0 0c-94.24,25.28 -234.03,-8.71 -282.72,75.84 -90.84,157.72 -48.43,360.79 -72.64,541.18l0 0c-77.59,39.81 -164.22,173.32 -232.77,119.43 -159.71,-125.55 -231.69,-340.44 -294.23,-533.71 -22.44,-69.36 35.19,-141.49 52.78,-212.23l0 0c40.09,0.25 85.71,6.15 119.48,-9.84 50.26,-23.79 42.83,-82.17 42.83,-132.5 0,-59.92 -71.66,-81.69 -75.42,-139.03 2.26,-40.83 -0.07,-43.31 24.21,-75.57 47.36,-62.95 28.09,-67.61 22.35,-143.7 -3.02,-40.11 -27.31,-73.1 -46.56,-106.37 -60.13,-103.86 -71.23,-244.25 -112.66,-358.29 -12.25,-11.82 -54.01,-45.3 -54.01,-61.59 0,-63.39 -21.41,-104.01 34.45,-139.02 57.83,-36.25 20.25,-72.64 40.04,-114.77 32.6,-69.41 14.71,-96.98 -6.52,-166.09 -21.62,-70.41 -52.72,-130.56 -56.79,-209 -32.86,-67.53 -35.25,-135.53 -50.28,-209.01 -11.78,-57.55 59.72,-73.66 99.62,-103.57 24.85,-18.64 73.56,-29.38 73.56,-66.25 0,-104.56 61.26,-55.17 111.74,-118.5l0 0z" />
  </g>
  <!-- 沼津市 -->
  <g id="numazu" title="沼津市" fill="rgb(60, 128, 74)">    
    <path d="M18933.51 10227.93c9.42,-56.11 -14.61,-130.94 28.27,-168.34 51.14,-44.6 163.82,24.97 201.12,-31.72 73.95,-112.39 108.49,-264.11 80.07,-395.62 -11.82,-54.69 -158.38,45.84 -167.6,-9.33 -18.33,-109.62 47.36,-224.25 113.6,-313.51 88.8,-119.65 228.45,-191.67 337.07,-293.69 68.41,-64.25 128.96,-136.4 193.44,-204.6l0 0c209.27,280.55 438.5,547.27 627.82,841.65 56.7,88.17 35.38,217.72 104.28,296.72 78.07,89.52 254.23,71.95 309.13,177.28 56.5,108.39 -17.38,243.85 -26.07,365.77l0 0c-1.87,187.85 -93.01,397.27 -5.62,563.57 42.32,80.54 175.04,-49.77 262.57,-74.65l0 0c37.24,0 88.84,-29.37 111.74,0 24.77,31.77 -45.92,89.79 -18.63,119.44 29.39,31.93 86.81,1.16 130.22,1.74l0 0c-45.27,77.8 -90.54,155.6 -135.8,233.39l0 0c-17.99,18.66 -52.35,30.12 -53.97,55.98 -7.51,119.56 52.05,240.97 27.93,358.3 -9.4,45.73 -119.55,29.88 -117.32,76.51 2.75,57.53 127.02,59.98 126.63,117.57 -0.45,67.08 -112.82,89.67 -128.49,154.89 -9.84,40.95 43.51,72.14 65.26,108.2l0 0c-312.88,189.12 -695.91,293.97 -938.64,567.34 -102.95,115.95 139.38,362.96 22.34,464.67 -126.2,109.67 -333.33,-72.36 -499.08,-50.39 -121.4,16.09 -220.36,106.94 -330.54,160.4l0 0c-17.29,-54.36 -44.2,-91.98 -103.33,-134.27 -30.71,-61.76 -23.86,-126.21 -54,-185.68 -20.78,-41.02 -23.89,-143.94 -22.35,-191.28 0.43,-13.19 31.37,-85.77 40.04,-88.64 4.49,18.18 1.46,86.55 21.41,89.57 41.1,6.21 66.61,23.84 103.36,33.59 44.2,11.72 25.21,-29.45 24.21,-46.65 -0.85,-14.51 -13.36,-96.44 -19.56,-102.64 -13.73,-13.73 -44.39,-15.26 -54.93,-35.46 -18.27,-35.04 -21.91,-32.61 -13.04,-74.64l60.52 -177.29c24.28,-71.15 78.61,-53 56.8,-149.29 -31.09,-137.28 29.62,-190.79 70.77,-307.91 33.4,-95.03 23.68,-0.82 84.73,14l269.09 65.31c18.1,4.4 87.61,-55.21 142.47,-53.18 86.09,3.2 104.98,19.37 177.84,64.38 44.1,27.23 66.6,5.84 113.6,13.06 19.49,22.37 9.37,61.58 40.96,61.58 16.79,0 64.86,-26.5 77.29,-38.25 68.75,-65.05 136.68,-71.97 226.26,-80.25 41.19,-3.81 71.42,-55.98 97.77,-55.98 34.69,140.29 58.49,41.35 122.91,-6.53 19.31,25.84 -1.59,86.71 6.51,107.3 4.13,10.48 83.8,7.53 97.77,6.53 40.35,-2.88 85.47,-109.22 48.42,-127.83 -54.36,-27.29 -22.11,-61.53 -65.18,-76.51 -19.43,-6.76 -69.76,-30.62 -72.63,-54.12 -0.76,-6.21 55.34,6.54 68.91,6.54 41.16,0 46.82,18.86 77.28,-28 27.53,-42.34 20.73,-83.09 41.9,-127.83 21.09,-28.12 86.55,-71.25 45.62,-104.5 -32.33,-26.25 -123.85,-23.9 -155.49,0 -15.86,11.97 -43.77,85.3 -63.32,44.79 -17.24,-35.74 -35.69,-51.81 -45.62,-90.51 -16.4,-63.86 -61.81,-97.86 -88.46,-157.69 -17.23,-38.7 -80.49,-207.19 -121.98,-190.34 -150.89,61.32 -117.69,-83.67 -220.67,-129.7 -26.33,-11.76 -40.44,-4.17 -63.32,-27.99 51.59,-277.26 -295.66,-388.45 -487.91,-490.8 -36.24,-19.3 -161.77,-95.21 -191.81,-90.5l-468.35 -166.09c-34.93,-12.38 -78.27,-25.95 -124.22,-37.87l0 0z" />
  </g>
  <!-- 小山町 -->
  <g id="oyama" title="小山町" fill="rgb(60, 128, 74)">
    <path d="M18594.27 6413.64c11.75,37.8 23.5,75.6 35.25,113.4l0 0c572.88,53.32 1152.53,57.24 1718.64,159.96 81.16,14.72 97.36,138.7 167.4,182.28 47.94,29.83 144.21,77.52 167.4,26.04 60.14,-133.52 -64.24,-318.2 18.6,-438.96 44.03,-64.18 175.97,45.31 200.88,119.04 20.25,59.95 -165.29,129.62 -107.88,156.24 189.48,87.87 418.02,33.6 621.24,81.84 144.05,34.2 328.81,41.84 412.92,163.68 53.09,76.9 -163.92,163.55 -127.58,249.64 88.43,209.47 299.7,342.02 449.55,513.02l0 0c13.55,-16.45 27.77,-31.21 43.05,-42.75 29.56,-22.33 77.5,-38.52 102.43,-63.45 16.68,-16.68 23.49,-76.53 35.38,-101.71 29.37,-51.08 32.67,-136.24 47.49,-195.01 22.65,-89.77 48.99,-179.61 89.38,-262.19 6.43,-13.14 38.59,-78.78 26.07,-86.78 -26.96,-17.21 -71.69,-44.13 -71.69,-83.97 -20.56,-71.01 -37.7,-147.74 -49.35,-220.2 -7.82,-48.62 20.74,-90.71 6.52,-137.17 -21.35,-69.79 -20.64,-133 -38.18,-201.54 -16.57,-64.72 -32.75,-105.62 -59.59,-166.08 -39.79,-53.25 -60.61,-26.93 -46.47,-101.81 9.01,-47.67 53.71,-218.73 12.11,-250.07 -72.09,-54.33 -70.27,-35.11 -147.12,-13.06 -57.22,16.42 -55.33,-23.05 -98.7,-43.85 -24.92,-11.94 -67.62,0.55 -96.84,-9.34 -46.72,-15.81 -58.27,26.49 -96.84,47.59 -51.87,28.39 -125.73,-14.28 -178.77,16.8 -44.05,12.6 -89.93,27.31 -135.95,30.79 -31.99,2.41 -60.75,14.78 -89.39,-6.53 -31.05,-23.09 -84.15,-16.14 -121.98,-12.13 -52.44,5.57 -102.94,0.93 -155.49,0.93l0 0 -73.64 29.03c-68.36,35.89 -126.49,64.24 -190.88,108.24 -64.94,44.36 -107.91,99.42 -189.95,108.23 -49.34,5.29 -66.27,25.1 -108.94,44.79 -39.16,18.08 -108.27,26.06 -121.04,-30.79 -27.89,-15.47 -22.11,-78.38 -57.73,-78.38 -38.17,0 -64.8,39.66 -103.36,5.6 -47.43,-41.91 -163.94,59.9 -223.47,77.44 -66.88,19.71 -59.67,83.57 -108.01,113.84 -106.99,67.02 -87.95,1.43 -191.81,-1.87 -102.41,-3.26 -273.35,-5.17 -359.41,57.85 -50.76,31.79 -186.82,31.7 -248.61,38.26 -101.31,10.75 -209.86,1.14 -309.13,13.99 -51.45,6.65 -83.58,48.52 -134.08,48.52 -42.54,0 -77.38,28.11 -112.43,40.6l0 0z" />
  </g>
  <!-- 御殿場市 -->
  <g id="gotenba" title="御殿場市" fill="rgb(60, 128, 74)">    
    <path d="M22150.69 7739.82c-149.85,-171 -361.12,-303.55 -449.55,-513.02 -36.34,-86.09 180.67,-172.74 127.58,-249.64 -84.11,-121.84 -268.87,-129.48 -412.92,-163.68 -203.22,-48.24 -431.76,6.03 -621.24,-81.84 -57.41,-26.62 128.13,-96.29 107.88,-156.24 -24.91,-73.73 -156.85,-183.22 -200.88,-119.04 -82.84,120.76 41.54,305.44 -18.6,438.96 -23.19,51.48 -119.46,3.79 -167.4,-26.04 -70.04,-43.58 -86.24,-167.56 -167.4,-182.28 -566.11,-102.72 -1145.76,-106.64 -1718.64,-159.96l0 0c31,86.8 62,173.6 93,260.4l163.68 189.72c95.48,86.8 211.68,155.24 286.44,260.4 42.86,60.29 4.17,159.39 52.08,215.76 66.24,77.93 203.3,74 264.12,156.24 58.13,78.61 3.26,209.23 63.24,286.44 59.53,76.63 165.08,148.39 260.4,130.2 230.46,-43.98 406.49,-349.45 636.12,-301.32 171.65,35.97 116.6,335.23 215.76,479.88 41.48,60.51 151.88,48.75 189.72,111.6 43.79,72.73 -7.87,176.86 29.76,252.96 48.09,97.26 107.48,249.84 215.8,243.69 299.11,-16.99 563.87,-202.68 845.8,-304.01l0 0c7.76,-23.6 15.94,-50.4 -7.76,-82.28 -39.01,-52.44 -26.45,-126.93 -31.65,-190.34 0,-153.38 50.63,-245.94 147.11,-362.03 32.62,-39.26 62.92,-92.47 97.55,-134.53l0 0z" />
  </g>
  <!-- 長泉町 -->
  <g id="nagaizumi" title="長泉町" fill="rgb(60, 128, 74)">    
    <path d="M20734.64 10492.54c71.38,-31.72 142.77,-63.45 214.16,-95.18l0 0c22.96,-51.63 66.92,-98.42 68.9,-154.89 3.86,-110.13 -34.68,-217.67 -52.02,-326.51l0 0c-34.81,-12.46 -90.56,-3.12 -104.41,-37.38 -24.74,-61.18 47.14,-143.72 9.31,-197.81 -63.19,-90.34 -202.19,-100.64 -275.61,-182.88 -94.08,-105.39 -105.76,-275.15 -214.15,-365.77 -201.85,-168.76 -458.26,-258.64 -687.38,-387.96l0 0c8.68,22.32 17.36,44.64 26.04,66.96l0 0c209.27,280.55 438.5,547.27 627.82,841.65 56.7,88.17 35.38,217.72 104.28,296.72 78.07,89.52 254.23,71.95 309.13,177.28 56.5,108.39 -17.38,243.85 -26.07,365.77l0 0z" />
  </g>
  <!-- 裾野市 -->
  <g id="susono" title="裾野市" fill="rgb(60, 128, 74)">    
    <path d="M18886.2 6977.16c195.92,551.8 344.45,1122.8 587.76,1655.4 34.1,74.65 146.32,74.4 219.48,111.6l0 0c229.12,129.32 485.53,219.2 687.38,387.96 108.39,90.62 120.07,260.38 214.15,365.77 73.42,82.24 212.42,92.54 275.61,182.88 37.83,54.09 -34.05,136.63 -9.31,197.81 13.85,34.26 69.6,24.92 104.41,37.38l0 0c68.2,-111.6 103.42,-251.94 204.6,-334.8 58.71,-48.08 155.01,5.64 226.92,-18.6 287.86,-97.03 563,-228.38 844.49,-342.56l0 0c-10.68,-15.49 -22.31,-30.45 -35.84,-44.02 -34.92,-35.02 -62.6,-63.31 -111.74,-78.38 -19.79,-6.07 -13.96,-111.47 -13.96,-139.03 0,-66.56 -79.15,-115.62 -79.15,-162.35 47.95,-11.86 -8.91,-124.96 -17.69,-146.49 -15.02,-36.84 -18.6,-56.32 -40.04,-90.51 -9.66,-15.41 -3.86,-31.85 2.17,-50.22l0 0c-281.93,101.33 -546.69,287.02 -845.8,304.01 -108.32,6.15 -167.71,-146.43 -215.8,-243.69 -37.63,-76.1 14.03,-180.23 -29.76,-252.96 -37.84,-62.85 -148.24,-51.09 -189.72,-111.6 -99.16,-144.65 -44.11,-443.91 -215.76,-479.88 -229.63,-48.13 -405.66,257.34 -636.12,301.32 -95.32,18.19 -200.87,-53.57 -260.4,-130.2 -59.98,-77.21 -5.11,-207.83 -63.24,-286.44 -60.82,-82.24 -197.88,-78.31 -264.12,-156.24 -47.91,-56.37 -9.22,-155.47 -52.08,-215.76 -74.76,-105.16 -190.96,-173.6 -286.44,-260.4l0 0z" />
  </g>
  <!-- 富士市 -->
  <g id="huji" title="富士市" fill="rgb(60, 128, 74)">    
    <path d="M18886.2 6977.16c-54.56,-63.24 -109.12,-126.48 -163.68,-189.72l0 0c-44.64,260.4 -53.69,529.48 -133.92,781.2 -22.64,71.05 -131.62,85.19 -163.68,152.52 -23.02,48.34 44.26,115.19 14.88,159.96 -18.58,28.31 -65.33,-60.44 -93,-40.92 -243.55,171.78 -469.34,370.29 -677.04,584.04 -22.22,22.87 12.91,62.49 18.28,93.93 0.73,4.29 -0.61,8.76 0,13.06 19.24,134.44 94.02,271.7 59.59,403.08 -14,53.44 -122.48,36.21 -165.74,1.87 -30.75,-24.41 46.07,-84.39 22.35,-115.7 -20.09,-26.52 -72.41,-5.46 -98.7,14.93 -68.88,53.42 -159.39,109.88 -173.19,195.94 -15.64,97.48 119.52,183.84 96.84,279.92 -13.33,56.47 -83.38,-126.45 -137.81,-106.37 -95.88,35.37 -99.19,224.11 -201.12,231.4 -87.33,6.25 -91.11,-156.59 -163.88,-205.27 -69.64,-46.59 -161.62,-44.34 -242.42,-66.51l0 0c-94.24,25.28 -234.03,-8.71 -282.72,75.84 -90.84,157.72 -48.43,360.79 -72.64,541.18l0 0c98.08,84.6 175.25,202.64 294.23,253.79 86.7,37.27 200.4,-51.12 283.06,-5.6 58.45,32.18 -6.19,167.72 55.86,192.22 100.76,39.79 228.53,-97.4 322.17,-42.93 98.44,57.26 93.26,207.8 139.89,311.7l0 0c131.79,-37.58 243.46,-127.79 377.84,-165.2 152.74,-40.32 245.68,-142.76 416.21,-142.76 -5.42,-22.03 -114.81,-77.63 -127.56,-119.44 -2.22,-7.28 154.09,-111.69 121.04,-27.99 -29.12,73.72 4.88,145.25 84.73,136.23 101.6,-11.49 307.52,-16.09 399.46,24.26 65.82,-5.17 156.07,10.87 237.98,32.11l0 0c9.42,-56.11 -14.61,-130.94 28.27,-168.34 51.14,-44.6 163.82,24.97 201.12,-31.72 73.95,-112.39 108.49,-264.11 80.07,-395.62 -11.82,-54.69 -158.38,45.84 -167.6,-9.33 -18.33,-109.62 47.36,-224.25 113.6,-313.51 88.8,-119.65 228.45,-191.67 337.07,-293.69 68.41,-64.25 128.96,-136.4 193.44,-204.6l0 0c-8.68,-22.32 -17.36,-44.64 -26.04,-66.96l0 0c-73.16,-37.2 -185.38,-36.95 -219.48,-111.6 -243.31,-532.6 -391.84,-1103.6 -587.76,-1655.4l0 0z" />
  </g>
  <!-- 川根本町 -->
  <g id="kawanehonntyou" title="川根本町" fill="rgb(60, 128, 74)">    
    <path d="M9351.84 12393.48c117.8,-9.92 237.28,-51.87 353.4,-29.76 77.03,14.67 152.55,67.01 193.44,133.92 23.84,39.01 -48.41,92.17 -29.76,133.92 15.68,35.11 85.23,9.85 107.88,40.92 27.38,37.55 -23.86,132.43 22.32,137.64 78.27,8.83 130.85,-97.33 208.32,-111.6 31.23,-5.75 66.05,90.16 74.4,59.52 19.74,-72.41 -19.84,-148.8 -29.76,-223.2 0,0 171.12,-145.08 174.84,-167.4 3.72,-22.32 450.12,-1000.68 450.12,-1000.68 0,0 104.16,0 115.32,22.32 11.16,22.32 18.6,241.8 18.6,241.8 37.2,-60.76 56.7,-136.88 111.6,-182.28 21.79,-18.01 65.41,45.32 81.84,22.32 24.54,-34.36 -36.2,-95.56 -7.44,-126.48 36.27,-38.99 111.27,-62.01 156.24,-33.48 89,56.46 126.48,168.64 189.72,252.96l0 0c47.12,-119.04 168.05,-231.91 141.36,-357.12 -33.31,-156.25 -247.08,-224.16 -297.6,-375.72 -27.9,-83.72 93.03,-161.08 89.28,-249.24 -6.59,-155.05 -175.78,-305.67 -119.04,-450.12 40.37,-102.77 233.34,-7.14 323.64,-70.68 91.15,-64.14 98.33,-205.36 178.56,-282.72 32.44,-31.28 106.16,16.9 133.92,-18.6 58.94,-75.36 119.54,-179.64 93,-271.56 -47.71,-165.23 -166.1,-308.98 -293.88,-424.08 -48.05,-43.28 -139.34,-50.29 -193.44,-14.88 -41.61,27.24 9.37,103.5 -11.16,148.8 -23.93,52.8 -57.82,137.54 -115.32,130.2 -54.13,-6.91 -15.26,-120.61 -59.52,-152.52 -28.96,-20.87 -98.76,72.86 -100.44,37.2 -6.89,-146.24 21.84,-297.98 81.84,-431.52 32.8,-72.99 156.79,-80.39 182.28,-156.24 30.62,-91.12 17.78,-205.13 -33.48,-286.44 -33.88,-53.75 -130.39,-19.13 -182.28,-55.8 -46.62,-32.94 -40.77,-130.02 -96.72,-141.36 -142.6,-28.92 -324.89,128.32 -435.24,33.48 -161,-138.38 -88.52,-431.37 -220.84,-597.37 -99.19,-124.43 -302.06,-115.36 -426.45,-214.6 -77.53,-61.85 -133.79,-155.84 -158.29,-251.93 -22.28,-87.38 16.88,-179.58 25.32,-269.37l0 0c-18.63,-3.64 -36.45,-9.75 -51.42,-18.01 -62.05,-46.7 -95.5,-108.85 -179.7,-118.5 -75.14,-8.62 -155.67,15.63 -185.3,84.9 -28.55,66.73 -34.54,100.31 -116.39,113.84 -92.8,15.33 -81.96,54.89 -111.73,130.63 -50.94,87.78 -162.95,84.89 -162.95,207.14 0,57.31 -39.04,180.71 -103.36,212.72l0 0c-8.36,141.21 19.71,289.46 -25.1,423.63 -30.7,91.93 -183.6,123.47 -189.94,220.2 -3.85,58.8 149.13,-18.32 173.18,35.46 41.73,93.33 -71.17,217.26 -20.48,306.05 62.19,108.91 271.67,89.51 313.81,207.65 45.16,126.62 -47.58,267 -100.44,390.6 -112.95,264.13 -313.16,490.76 -394.32,766.32 -25.71,87.29 68.83,168.95 93,256.68 19.39,70.35 -24.43,176.68 37.2,215.76 75.65,47.97 191.35,-68.96 267.84,-22.32 148.59,90.6 323.3,221.32 342.24,394.32 24.16,220.73 -194.72,405.84 -230.64,624.96 -15.87,96.81 59.9,187.1 81.84,282.72 12.86,56.06 61.12,128.66 22.32,171.12 -110.47,120.89 -345.77,112.76 -416.64,260.4 -40.61,84.61 142.73,125.63 193.44,204.6 38.14,59.38 44.64,133.92 66.96,200.88l0 0z" />
  </g>
  <!-- 藤枝市 -->
  <g id="huzieda" title="藤枝市" fill="rgb(60, 128, 74)">
    <path d="M13138.61 13664.96c-18.53,-61.74 -11.59,-138.14 -55.61,-185.24 -34.71,-37.14 -101.18,-15.7 -148.8,-33.48 -46.26,-17.27 -103.16,-29.37 -130.2,-70.68 -24.45,-37.36 16.51,-94.12 -3.72,-133.92 -133.27,-262.18 -253.79,-539.9 -450.12,-758.88 -104.76,-116.85 -268.62,-172.01 -420.36,-212.04 -62.25,-16.42 -136.64,93.41 -186,52.08 -48,-40.18 67.83,-139.39 26.04,-186 -32.37,-36.11 -76.75,62.79 -122.76,78.12 -35.29,11.76 -78.14,16.24 -111.6,0 -56.14,-27.24 -94.24,-81.84 -141.36,-122.76l0 0c9.92,102.92 49.84,207.34 29.76,308.76 -8.01,40.48 -91.26,27.76 -104.16,66.96 -24.82,75.38 47.59,171.95 3.72,238.08 -55.26,83.3 -215.7,59.39 -260.4,148.8 -103.45,206.91 -164.41,446.02 -152.52,677.04 4.69,91.08 166.97,103.66 197.16,189.72 26.4,75.26 -96.79,170.99 -48.36,234.36 107.35,140.47 297.6,190.96 446.4,286.44 0,0 163.68,520.8 167.4,543.12 3.72,22.32 148.8,104.16 148.8,104.16 -33.48,42.16 -143.97,94.82 -100.44,126.48 60.99,44.36 196.72,-107.82 223.2,-37.2 35.82,95.54 -159.33,176.46 -133.92,275.28 21.68,84.32 156.24,76.88 234.36,115.32l0 0c178.56,-45.88 436.49,17.76 535.68,-137.64 132.15,-207.04 -49.19,-501.57 22.32,-736.56 25.83,-84.88 197.89,-39.95 238.08,-119.04 50.57,-99.51 -78.59,-248.8 -7.44,-334.8 100.26,-121.18 300.68,-100.84 435.24,-182.28 21.45,-12.98 11.18,-63.02 -11.16,-74.4 -55.78,-28.41 -141.84,18.32 -186,-26.04 -27.06,-27.18 44.51,-62.5 66.77,-93.76l0 0z" />
  </g>
  <!-- 静岡市 -->
  <g id="shizuoka" title="静岡市" fill="rgb(60, 128, 74)">    
    <path d="M11542.92 11563.92c-49.6,176.08 -99.2,352.16 -148.8,528.24l0 0c47.12,40.92 85.22,95.52 141.36,122.76 33.46,16.24 76.31,11.76 111.6,0 46.01,-15.33 90.39,-114.23 122.76,-78.12 41.79,46.61 -74.04,145.82 -26.04,186 49.36,41.33 123.75,-68.5 186,-52.08 151.74,40.03 315.6,95.19 420.36,212.04 196.33,218.98 316.85,496.7 450.12,758.88 20.23,39.8 -20.73,96.56 3.72,133.92 27.04,41.31 83.94,53.41 130.2,70.68 47.62,17.78 114.09,-3.66 148.8,33.48 44.02,47.1 37.08,123.5 55.61,185.24l0 0c39.11,-8.7 88.14,-53.56 117.32,-26.12 119.76,112.63 189.22,268.92 283.82,403.37l0 0c33.34,-63.85 69.07,-165.57 79.31,-210.23 61.97,-51.37 96.1,-100.87 173.19,-138.09 91.04,-43.94 237.7,-150.16 336.13,-153.96 126.16,-4.87 176.45,-93.28 247.68,-188.48 42.13,-32.35 104.95,-43.98 152.7,-68.11 98.88,-49.96 217.4,-98.91 323.1,-130.63 103.54,-31.06 219.37,-59.93 315.65,-110.1 114.27,6.91 256.26,-178.05 371.52,-211.81 45.7,-13.39 130.17,-89.58 164.81,-123.16 64.45,-62.46 116.2,-97.67 169.46,-175.42 34.11,-24.42 57.45,-89.23 79.15,-125.96 21.13,-35.79 8.89,-42.84 2.79,-78.38 -9.47,-55.23 64.78,-102.57 43.76,-165.15 -20.41,-60.79 -114.66,-105.83 -172.26,-119.44 -35.26,-8.32 7.69,155.61 1.87,179.15l-0.93 0.94c-25.75,0 -37.59,-52.85 -63.32,-54.12l-113.6 -5.6c-50.84,-2.51 -4.98,65.3 -15.83,97.97 -8.67,26.09 -63.18,40.65 -33.52,77.45 38.93,48.28 112.86,81.88 96.84,145.55 -6.36,25.28 13.51,89.13 0,98.91 -17.23,12.49 -50.37,21.99 -72.63,35.46 -68.45,41.4 -41.34,-110.51 -50.28,-125.97 -18.83,-32.6 -43.06,-18.59 -35.38,-63.45 9.2,-53.66 1.43,-81.94 -6.52,-135.29 1.47,-15.82 3.58,-38.76 0,-54.12 -3.38,-14.47 -17.18,-13.54 -25.14,-23.33 -6.16,-7.59 12.61,-22.55 15.83,-29.85 27.36,-61.85 -16.6,-95.8 6.52,-148.36 10.73,-24.38 15.38,-86.39 8.38,-113.84 -5.31,-20.8 -26.97,-43.74 -37.25,-64.38 -39.36,-78.94 93.11,57.73 83.8,-7.46 -12.81,-89.61 45.13,-36.87 54.01,-0.94 8.34,0 52.46,-36.11 50.28,-41.05 -9.93,-22.57 -40.77,-25.91 -33.52,-62.52 22.07,-111.5 30.5,-49.12 57.73,5.6 21.08,42.34 14.12,35.28 27.93,-2.8 8.16,-22.53 24.71,14.52 47.49,3.74 25.71,-12.18 91.86,-41.55 67.04,-74.65 -46.04,-61.43 -33.81,-56.65 18.62,-126.9 38.43,-29.21 81.59,-42.34 116.39,-80.24 128.16,-139.54 214.9,-294.23 256.99,-479.6 60.07,-154.7 117.81,-233.6 252.34,-331.24 120.09,-87.17 261.31,-147.39 411.55,-166.08 -1.84,0.39 -2.03,0.1 -3.72,0.93 118.44,23.48 286.67,13.59 409.69,10.26 36.92,-0.99 71.83,-7.16 105.41,-16.74l0 0c-46.63,-103.9 -41.45,-254.44 -139.89,-311.7 -93.64,-54.47 -221.41,82.72 -322.17,42.93 -62.05,-24.5 2.59,-160.04 -55.86,-192.22 -82.66,-45.52 -196.36,42.87 -283.06,5.6 -118.98,-51.15 -196.15,-169.19 -294.23,-253.79l0 0c-77.59,39.81 -164.22,173.32 -232.77,119.43 -159.71,-125.55 -231.69,-340.44 -294.23,-533.71 -22.44,-69.36 35.19,-141.49 52.78,-212.23l0 0c-45.46,-0.28 -83.86,6.7 -90.02,61.07 -9.59,84.66 -71.99,98.24 -128.49,154.89 -30.22,51.76 -20.87,115.37 -81.01,148.36 -55.84,30.64 -55.7,78.76 -98.7,105.43 -13.31,8.26 -177.85,-157.16 -196.47,-144.62 -28.63,19.3 -58.71,35.04 -94.04,28.92 -35.38,-6.12 -57.62,-41.7 -95.91,-47.58 -117.59,-18.06 -263.43,26.68 -378.03,-3.74 -116.23,-40.69 -131.1,-135.66 -163.88,-243.53 -22.54,-74.21 -101.22,-132.17 -175.98,-144.62 -54.85,-9.14 -105.47,52.01 -137.8,43.85 -13.94,-55.16 -66.83,-119.72 -57.73,-181.95 0,-52.61 -21.35,-92.98 -38.18,-141.82 -17.62,-51.11 -12.7,-117.47 -17.69,-171.69 -11.1,-120.4 -33.19,-228.28 -94.04,-331.24 -29.04,-31.59 -44.88,-80.42 -73.56,-113.83l-80.08 -93.31c-26.87,-31.3 -73.77,-156.08 -58.66,-193.14 27.48,-67.36 -4.19,-81.3 -6.52,-146.49 -1.08,-30.48 7.82,-68.2 4.66,-95.18 27.26,-47.63 61.7,-109.5 74.49,-163.28 8.31,-34.99 -54.03,-118.07 -62.39,-153.96 -13.52,-58.05 -6.53,-67.96 -58.66,-46.65 -67.99,27.81 -75.42,-52.26 -75.42,-97.97 -25.81,0 -66.46,32.61 -94.97,38.25 -40.12,7.95 -49.83,-13.64 -76.35,-34.52 -81.58,-104.78 -92.76,-150.23 -234.65,-150.23 -111.48,0 -203.3,93.14 -290.51,150.23 -58.82,38.51 -114.37,-8.67 -141.53,62.51 -29.39,76.99 -92.19,169.87 -182.5,148.36 -82.19,-27.39 -79.77,-86.35 -135.94,-136.23 -56.13,-49.86 -138.99,-17.11 -184.36,-65.31 -32.32,-34.32 -20.1,-84.52 -25.14,-120.37 -38.57,-15.39 -34.04,-11.07 -36.32,-52.25 -1.35,-24.33 -19.54,-41.71 -18.62,-77.44 0,-30.16 68.47,-59.23 75.42,-101.71 5.54,-33.92 -33.52,-64.65 -33.52,-100.77 0,-28.58 23.1,-46.84 17.69,-78.38 -7.38,-43.07 -34.27,-67.72 -57.73,-102.63 -26.32,-39.19 12.71,-104.82 -11.17,-140.9 -11.04,-16.67 -39.07,-24.1 -48.42,-42.92 -20.1,-2.84 -35.94,14 -60.52,14 -2.62,-5.27 -23.17,-23.09 -27.93,-26.13 -66.14,-44.01 -129.58,-25.37 -90.32,-114.77 23.07,-52.55 14.54,-122.12 55.86,-167.01 31.93,-34.7 71.94,-60.34 103.36,-98.91 55.07,-67.58 17.31,-100.7 42.83,-167.95 28.23,-74.41 123.84,-28.49 123.84,-135.3l13.04 -332.17c2.37,-60.66 -40,-233.97 -94.98,-258.46 -51.71,-23.02 -89.33,-82.02 -99.63,-137.16 0,-33.24 -1.87,-113.53 26.07,-137.16 23.8,-20.12 67.45,-24.19 92.18,-53.18 58.66,-68.73 74.49,-185.49 74.49,-275.26 0,-76.37 21.49,-153.03 19.56,-225.8 8.71,-46.78 -14.5,-141.61 13.96,-181.02 11.87,-16.43 96.75,-105.87 109.88,-109.17l-110.81 -237.93c-14.94,-32.07 -40.42,-23.94 -47.48,-63.45 -7.69,-43.09 22.44,-65.68 29.79,-102.63 0,-33.8 1.44,-240.58 -24.21,-249.13 -79.93,-26.63 -139.7,-60.28 -168.53,-145.56 -15.71,-46.47 3.35,-134.68 -27.93,-162.35 -20.15,-17.81 -40.04,-61.9 -40.04,-88.65 -19.38,-91.07 28.18,-167.6 40.97,-250.99 6.35,-41.47 -17.72,-195.52 -56.8,-213.67 -67.96,-31.55 -40.97,-45.54 -40.97,-104.51 0,-22.31 -19.9,-52.04 -27,-75.58 0,-24.93 0.72,-113.66 -23.28,-125.03 -52.13,-24.68 -39.1,-36.31 -29.8,-90.5 12.07,-70.4 53.87,-195.69 6.52,-259.4 -21.42,0 -47.86,18.78 -67.04,28.93 -23.56,12.46 -66.02,15.37 -93.11,13.06l0 0 -58.66 84.91c-44.71,55.9 -123.72,128.19 -141.53,196.88 -16.55,63.79 -13.04,148.2 -2.8,212.74 7.33,46.16 17.8,78.2 5.59,125.96l-106.15 180.08c-32.15,54.55 -27.45,111.03 -61.45,167.96 -22.26,37.26 -35.87,43.38 -24.21,91.44 7.26,29.91 -60.8,127.83 -83.8,127.83 -6.72,-27.32 -95.02,-94.28 -119.18,-118.5 -51.8,-51.9 -82.27,-114.79 -138.74,-46.66 -38.24,46.12 -52.98,8.36 -68.9,83.05 -8.27,38.85 -80.12,105.28 -109.88,136.22 -12.17,53.15 -25.36,118.75 -58.66,162.36 -36.94,48.4 -90.25,53.89 13.97,63.45 3.51,4.93 10.44,4.05 13.97,10.26 15.58,2.2 25.37,14 48.42,14 4.73,0 40.38,-3.56 41.9,0.93 8.77,2.16 18.16,64.97 21.41,74.64 7.9,23.54 31.77,48.2 30.73,72.78 -1.81,42.88 -81.22,88.74 -116.39,107.31 -37.78,19.96 -17.33,59.87 -25.14,90.5 -7.74,30.31 -25.23,44.4 -45.63,66.25 -16.39,13.68 -87.42,88.03 -73.56,110.1 19.6,31.23 56.53,39.14 73.56,72.78 42.91,84.71 -23.6,172.3 -60.52,245.4 -22.16,43.9 51.97,28.15 75.42,27.06 101.38,-4.74 60.43,76.41 136.88,92.37 38.22,7.98 77.51,-3.73 113.59,-3.73 -11.48,34.69 -43.88,64.64 -60.52,97.97 -31.17,45.09 -73.44,207.77 -37.25,251 95.96,114.59 8.84,109.68 -27.93,216.47 -17.67,51.35 -82.41,34.96 -129.42,25.19 -113.44,-23.58 -109.23,89.58 -202.06,89.58 -49.35,0 -81.53,-46.4 -117.32,-50.39 -9.42,-1.05 -18.87,114.65 -20.48,135.29 14.57,58.54 36.33,127.15 39.1,186.62 2.48,53.34 -45.62,104.64 -45.62,148.36 51.4,12.71 254.11,21.07 258.85,83.97 3.1,41.06 0.97,69.24 -14.9,107.3 -24.39,58.52 -44.62,34.3 -38.17,110.11 6.61,80.54 138.07,43.55 170.39,101.7 35.98,64.76 70.83,107.23 54.94,187.55 -9.5,48 -54.16,79.77 -74.49,125.96 -24.7,56.15 -30.95,133.38 -63.32,183.82 -36.57,73.15 -38.1,62.8 -114.53,95.17 -71.1,30.1 -69.66,-17.73 -121.97,-17.73 -113.72,0 -187.12,135.28 -260.72,202.48 -53.23,48.61 -177.18,22.25 -112.66,152.09 49.94,100.53 -46.57,130.84 -127.36,115.05l0 0c-8.44,89.79 -47.6,181.99 -25.32,269.37 24.5,96.09 80.76,190.08 158.29,251.93 124.39,99.24 327.26,90.17 426.45,214.6 132.32,166 59.84,458.99 220.84,597.37 110.35,94.84 292.64,-62.4 435.24,-33.48 55.95,11.34 50.1,108.42 96.72,141.36 51.89,36.67 148.4,2.05 182.28,55.8 51.26,81.31 64.1,195.32 33.48,286.44 -25.49,75.85 -149.48,83.25 -182.28,156.24 -60,133.54 -88.73,285.28 -81.84,431.52 1.68,35.66 71.48,-58.07 100.44,-37.2 44.26,31.91 5.39,145.61 59.52,152.52 57.5,7.34 91.39,-77.4 115.32,-130.2 20.53,-45.3 -30.45,-121.56 11.16,-148.8 54.1,-35.41 145.39,-28.4 193.44,14.88 127.78,115.1 246.17,258.85 293.88,424.08 26.54,91.92 -34.06,196.2 -93,271.56 -27.76,35.5 -101.48,-12.68 -133.92,18.6 -80.23,77.36 -87.41,218.58 -178.56,282.72 -90.3,63.54 -283.27,-32.09 -323.64,70.68 -56.74,144.45 112.45,295.07 119.04,450.12 3.75,88.16 -117.18,165.52 -89.28,249.24 50.52,151.56 264.29,219.47 297.6,375.72 26.69,125.21 -94.24,238.08 -141.36,357.12l0 0z" />
  </g>
  <!-- 吉田町 -->
  <g id="yoshidatyou" title="吉田町" fill="rgb(60, 128, 74)">    
    <path d="M11881.61 15855.81c58.22,-33.15 144.99,-39.39 174.67,-99.45 25.05,-50.69 -85.44,-124.53 -44.64,-163.68 52.71,-50.57 146.08,-2.48 219.12,-3.73l0 0c54.94,74.34 109.88,148.67 164.81,223l0 0c92.97,39.76 195.77,124.64 272.82,193.15 59.13,52.56 180.29,233.57 32.59,263.12 -179.56,131.78 -373.82,210.96 -547.31,346.24l0 0c-13.71,-43.87 -52.03,-86.97 -41.15,-131.63 17.6,-72.21 79.46,-125.65 119.19,-188.48 0,0 -197.4,-108.24 -197.4,-117.57 0,-9.33 -152.7,-320.97 -152.7,-320.97l0 0z" />
  </g>
  <!-- 焼津市 -->
  <g id="yaizu" title="焼津市" fill="rgb(60, 128, 74)">    
    <path d="M12045.12 15369.48c61.88,73.15 123.76,146.31 185.64,219.47l0 0c54.94,74.34 109.88,148.67 164.81,223l0 0c0,-17 128.4,-19.79 134.08,-11.2 64.46,97.35 214.69,272.12 330.55,301.39 0,13.92 -38.77,65.31 -16.76,65.31 35.82,-62.98 178.53,-140.26 39.1,-147.42 -46.28,-2.38 -58.38,-18.04 -90.32,-46.66 -73.68,-66.04 24.95,-59.41 25.15,-57.85 8.74,68.44 7.82,50.58 60.52,56.92 83.66,10.06 56.87,-66.3 103.35,-129.7l77.29 -105.43c32.81,-44.76 48.81,-106.1 81.93,-146.5 62.32,-105.07 118.51,-224.5 196.47,-318.17 89.81,-107.89 93.19,-184.86 52.14,-316.31 -26.71,-66.97 -144.17,-111.88 -129.42,-197.81 3.61,-21.09 24.21,-42.75 24.21,-63.45 0,-36.65 -33.98,-48.4 -13.97,-83.04 21.01,-36.35 -27.86,-52.8 -8.38,-81.18 19.79,-27.1 23.56,-43.85 59.59,-43.85 43.12,0 -1,-25.59 2.79,-52.26 8.92,-62.61 85.67,-95.5 85.67,-138.09 0,-104.71 40.72,-137.97 103.35,-211.81 8.35,-9.85 17.51,-24.77 26.84,-42.63l0 0c-94.6,-134.45 -164.06,-290.74 -283.82,-403.37 -29.18,-27.44 -78.21,17.42 -117.32,26.12l0 0c-22.26,31.26 -93.83,66.58 -66.77,93.76 44.16,44.36 130.22,-2.37 186,26.04 22.34,11.38 32.61,61.42 11.16,74.4 -134.56,81.44 -334.98,61.1 -435.24,182.28 -71.15,86 58.01,235.29 7.44,334.8 -40.19,79.09 -212.25,34.16 -238.08,119.04 -71.51,234.99 109.83,529.52 -22.32,736.56 -99.19,155.4 -357.12,91.76 -535.68,137.64l0 0z" />
  </g>
  <!-- 掛川市 -->
  <g id="kakegawa" title="掛川市" fill="rgb(60, 128, 74)">    
    <path d="M10240.92 15436.44c-9.92,-114.08 11.81,-235.55 -29.76,-342.24 -28.33,-72.71 -96.79,-130.46 -167.4,-163.68 -64.1,-30.16 -160.45,33.68 -212.04,-14.88 -55.08,-51.84 17.52,-175.19 -40.92,-223.2 -70.47,-57.89 -217.37,39.87 -271.56,-33.48 -75.44,-102.12 -47.12,-253.21 -33.48,-379.44 3.04,-28.16 67.29,-7.31 78.12,-33.48 52.32,-126.44 129.29,-264.28 100.44,-398.04 -19.76,-91.64 -148.8,-114.08 -223.2,-171.12l0 0c-39.68,40.92 -63.37,110.57 -119.04,122.76 -89.24,19.54 -187.72,-73.5 -271.56,-37.2 -65.16,28.21 -44.47,138.35 -89.28,193.44 -167.75,206.23 -399.11,360.58 -543.12,584.04 -112.82,175.07 -127.9,397.24 -212.04,587.76 -24.64,55.81 -74.4,96.72 -111.6,145.08l0 0c-9.92,162.44 -79.33,332.32 -29.76,487.32 54.77,171.25 255.81,265.01 323.64,431.52 23.65,58.06 -112.31,118.57 -78.12,171.12 56.55,86.92 178.11,113.68 279,137.64 102.55,24.35 220.81,-41.11 316.2,3.72 54.29,25.51 94.69,125.45 55.8,171.12 -92.45,108.57 -273.71,104.96 -375.72,204.6 -28.96,28.28 56.69,67.41 55.8,107.88 -0.62,28.05 -61.61,31.55 -59.52,59.52 2.83,37.85 94.93,60.09 70.68,89.28 -60.58,72.95 -186.23,62.83 -252.96,130.2 -68.68,69.34 -138.91,162.93 -133.92,260.4 5.77,112.84 108.32,198.34 162.47,297.5l0 0 949.74 208.07c146.9,32.26 285.09,104.13 435.76,127.83 36.26,5.7 70.9,13.68 104.4,23.29l0 0c33.18,-101.69 66.36,-203.38 99.55,-305.07l0 0c-2.41,-77.53 43.88,-174.26 -7.24,-232.58 -55.32,-63.11 -190.77,7.8 -245.52,-55.8 -51.79,-60.17 -38.28,-164.92 -7.44,-238.08 28.37,-67.29 170.13,-68.38 167.4,-141.36 -2.96,-79.03 -130.36,-93.54 -178.56,-156.24 -93.32,-121.4 -183.5,-249.01 -241.8,-390.6 -15.24,-37.01 8.17,-84.32 33.48,-115.32 28.1,-34.43 106.28,-23.44 115.32,-66.96 15.35,-73.9 -42.43,-145.19 -55.8,-219.48 -9.03,-50.16 -45.07,-114.47 -11.16,-152.52 36.53,-40.99 125.4,20.76 163.68,-18.6 190.17,-195.58 327.36,-436.48 491.04,-654.72l0 0z" />
  </g>
  <!-- 菊川市 -->
  <g id="kikugawa" title="菊川市" fill="rgb(60, 128, 74)">    
    <path d="M10240.92 15436.44c-163.68,218.24 -300.87,459.14 -491.04,654.72 -38.28,39.36 -127.15,-22.39 -163.68,18.6 -33.91,38.05 2.13,102.36 11.16,152.52 13.37,74.29 71.15,145.58 55.8,219.48 -9.04,43.52 -87.22,32.53 -115.32,66.96 -25.31,31 -48.72,78.31 -33.48,115.32 58.3,141.59 148.48,269.2 241.8,390.6 48.2,62.7 175.6,77.21 178.56,156.24 2.73,72.98 -139.03,74.07 -167.4,141.36 -30.84,73.16 -44.35,177.91 7.44,238.08 54.75,63.6 190.2,-7.31 245.52,55.8 51.12,58.32 4.83,155.05 7.24,232.58l0 0c68.26,25.39 139.83,109.1 204.8,76.18 65.79,-33.34 30.1,-146.16 63.24,-212.04 70.52,-140.2 123.22,-303.41 245.52,-401.76 74.71,-60.08 190.96,-17.36 286.44,-26.04l0 0c-13.64,-246.76 11.41,-498.75 -40.92,-740.28 -15.22,-70.26 -154,-80.64 -152.52,-152.52 2.89,-139.99 138.51,-249.14 163.68,-386.88 18.41,-100.76 -24.8,-203.36 -37.2,-305.04l0 0c-26.04,-73.16 -1.49,-232.02 -78.12,-219.48 -93.03,15.22 -34.73,274.6 -126.48,252.96 -126.26,-29.79 -116.16,-236.17 -204.6,-331.08 -22.83,-24.51 -66.96,2.48 -100.44,3.72l0 0z" />
  </g>
  <!-- 島田市 -->
  <g id="shimada" title="島田市" fill="rgb(60, 128, 74)">    
    <path d="M9351.84 12393.48c117.8,-9.92 237.28,-51.87 353.4,-29.76 77.03,14.67 152.55,67.01 193.44,133.92 23.84,39.01 -48.41,92.17 -29.76,133.92 15.68,35.11 85.23,9.85 107.88,40.92 27.38,37.55 -23.86,132.43 22.32,137.64 78.27,8.83 130.85,-97.33 208.32,-111.6 31.23,-5.75 66.05,90.16 74.4,59.52 19.74,-72.41 -19.84,-148.8 -29.76,-223.2 0,0 171.12,-145.08 174.84,-167.4 3.72,-22.32 450.12,-1000.68 450.12,-1000.68 0,0 104.16,0 115.32,22.32 11.16,22.32 18.6,241.8 18.6,241.8 37.2,-60.76 56.7,-136.88 111.6,-182.28 21.79,-18.01 65.41,45.32 81.84,22.32 24.54,-34.36 -36.2,-95.56 -7.44,-126.48 36.27,-38.99 111.27,-62.01 156.24,-33.48 89,56.46 126.48,168.64 189.72,252.96l0 0c-49.6,176.08 -99.2,352.16 -148.8,528.24l0 0c9.92,102.92 49.84,207.34 29.76,308.76 -8.01,40.48 -91.26,27.76 -104.16,66.96 -24.82,75.38 47.59,171.95 3.72,238.08 -55.26,83.3 -215.7,59.39 -260.4,148.8 -103.45,206.91 -164.41,446.02 -152.52,677.04 4.69,91.08 166.97,103.66 197.16,189.72 26.4,75.26 -96.79,170.99 -48.36,234.36 107.35,140.47 297.6,190.96 446.4,286.44 0,0 163.68,520.8 167.4,543.12 3.72,22.32 148.8,104.16 148.8,104.16 -33.48,42.16 -143.97,94.82 -100.44,126.48 60.99,44.36 196.72,-107.82 223.2,-37.2 35.82,95.54 -159.33,176.46 -133.92,275.28 21.68,84.32 156.24,76.88 234.36,115.32l0 0c61.88,73.15 123.76,146.31 185.64,219.47l0 0c-73.04,1.25 -166.41,-46.84 -219.12,3.73 -40.8,39.15 69.69,112.99 44.64,163.68 -29.68,60.06 -116.45,66.3 -174.67,99.45l0 0c-253.02,-74.07 -497.03,-193.14 -759.05,-222.21 -127.34,-14.12 -248,64.48 -372,96.72l0 0c-26.04,-73.16 -1.49,-232.02 -78.12,-219.48 -93.03,15.22 -34.73,274.6 -126.48,252.96 -126.26,-29.79 -116.16,-236.17 -204.6,-331.08 -22.83,-24.51 -66.96,2.48 -100.44,3.72l0 0c-9.92,-114.08 11.81,-235.55 -29.76,-342.24 -28.33,-72.71 -96.79,-130.46 -167.4,-163.68 -64.1,-30.16 -160.45,33.68 -212.04,-14.88 -55.08,-51.84 17.52,-175.19 -40.92,-223.2 -70.47,-57.89 -217.37,39.87 -271.56,-33.48 -75.44,-102.12 -47.12,-253.21 -33.48,-379.44 3.04,-28.16 67.29,-7.31 78.12,-33.48 52.32,-126.44 129.29,-264.28 100.44,-398.04 -19.76,-91.64 -148.8,-114.08 -223.2,-171.12l0 0c-14.88,-58.28 2.08,-136.96 -44.64,-174.84 -103.96,-84.29 -307.71,-40.62 -368.28,-159.96 -87.55,-172.5 -4.96,-386.88 -7.44,-580.32l0 0c110.36,-122.76 220.72,-245.52 331.08,-368.28l0 0z" />
  </g>
  <!-- 牧之原市 -->
  <g id="makinohara" title="牧之原市" fill="rgb(60, 128, 74)">    
    <path d="M10750.56 15730.32c12.4,101.68 55.61,204.28 37.2,305.04 -25.17,137.74 -160.79,246.89 -163.68,386.88 -1.48,71.88 137.3,82.26 152.52,152.52 52.33,241.53 27.28,493.52 40.92,740.28l0 0c89.28,40.92 201.26,50.57 267.84,122.76 61.94,67.16 34.21,184.84 85.56,260.4 40.02,58.89 179.79,51.73 174.84,122.76 -9.59,137.47 -172.5,224.05 -208.32,357.12 -28.62,106.33 -66.05,265.43 23.49,329.5 133.54,95.55 327.39,25.8 491.08,38.69l0 0c-14.93,-11.56 -29.46,-23.95 -41.38,-38.69 -52.03,-64.37 -26.07,-93.46 -26.07,-162.35 -22.79,0 -70.08,15.63 -72.62,-23.33l-8.38 -127.83c7.01,-91.77 -17.96,-185.27 2.79,-277.12 10.64,-47.07 14.35,-94.58 26.07,-141.82 10.61,-42.72 31.61,-137.45 62.38,-166.09 10.99,-6.3 7.67,-7.88 14.9,-13.06 0.41,-3.38 0.09,-2.74 2.8,-4.67 9.83,-34.59 47.12,-77.84 63.31,-112.9 86.12,-186.55 83.35,-417.52 203.92,-588.77 70.37,-43.73 123.57,-139.65 185.29,-198.74 28.8,-27.56 58.41,-52.86 88.65,-76.44l0 0c-13.71,-43.87 -52.03,-86.97 -41.15,-131.63 17.6,-72.21 79.46,-125.65 119.19,-188.48 0,0 -197.4,-108.24 -197.4,-117.57 0,-9.33 -152.7,-320.97 -152.7,-320.97l0 0c-253.02,-74.07 -497.03,-193.14 -759.05,-222.21 -127.34,-14.12 -248,64.48 -372,96.72l0 0z" />
  </g>
  <!-- 御前崎市 -->
  <g id="omaezaki" title="御前崎市" fill="rgb(60, 128, 74)">    
    <path d="M11814.55 18467.46c-7.91,0.65 -49.86,3.18 -53.07,-6.53 -4.35,0 -5.52,2.99 -9.32,3.73 -5.07,20.52 -39.08,12.39 -48.41,34.53 -11.2,26.6 8.62,22.43 21.41,36.38 9.53,10.38 5.65,26.13 26.07,25.2 13.16,-0.6 22.67,-7.83 35.39,-10.27 13.49,-2.58 33.63,7.28 46.55,1.87 22.24,-9.3 17.32,-33.9 14.9,-55.98l-33.52 -28.93zm-162.54 78.81c32.86,25.43 67.76,46.91 81.53,80.75 12.64,31.07 98.55,20.47 88.46,56.91 -5.2,18.76 -32.98,36.15 -24.21,57.85 25.27,62.53 104.91,-4 116.39,-39.19 17.29,0 19.6,51.04 39.11,59.72 31.18,13.86 59.12,-21.99 90.31,12.13 -4.58,41.9 -31.09,80.09 -40.03,119.43 -8.31,36.6 -63.83,87.7 -101.5,74.65 -40.21,-13.94 -78.83,-40.58 -120.11,-55.99 -85.52,-31.91 -158.64,-38.37 -249.54,-36.39 -121.99,2.65 -116.31,20.57 -202.05,-60.64 -35.1,-33.25 -71.98,-46.28 -111.74,-69.05l-374.31 -144.63 -513.98 -249.13c-143.24,-54.53 -267.19,-127.25 -412.37,-168.92l0 0c33.18,-101.69 66.36,-203.38 99.55,-305.07l0 0c68.26,25.39 139.83,109.1 204.8,76.18 65.79,-33.34 30.1,-146.16 63.24,-212.04 70.52,-140.2 123.22,-303.41 245.52,-401.76 74.71,-60.08 190.96,-17.36 286.44,-26.04l0 0c89.28,40.92 201.26,50.57 267.84,122.76 61.94,67.16 34.21,184.84 85.56,260.4 40.02,58.89 179.79,51.73 174.84,122.76 -9.59,137.47 -172.5,224.05 -208.32,357.12 -28.62,106.33 -66.05,265.43 23.49,329.5 133.54,95.55 327.39,25.8 491.08,38.69l0 0z" />
  </g>
  <!-- 磐田市 -->
  <g id="iwata" title="磐田市" fill="rgb(60, 128, 74)">    
    <path d="M7160.76 15261.6c-9.92,-33.48 -32.28,-65.62 -29.76,-100.44 3.94,-54.37 15.85,-112.48 48.36,-156.24 35.5,-47.78 120.3,-50.04 145.08,-104.16 41.11,-89.77 -9.74,-207.02 37.2,-293.88 66.31,-122.71 211.26,-187.56 286.44,-305.04 28.81,-45.01 7.44,-106.64 11.16,-159.96l0 0c-57.04,45.88 -101.28,115.72 -171.12,137.64 -107.89,33.86 -235.58,-24.47 -338.52,22.32 -220.41,100.18 -514.94,179.81 -602.64,405.48 -132.52,341 62.89,734.24 18.6,1097.4 -47.97,393.34 -207.18,765.26 -292.98,1152.11 -54.87,247.38 -85.81,499.47 -128.71,749.2l0 0c6.11,-2.59 10.29,6.43 11.33,34.57 4.47,120.88 -87.66,258.97 66.11,340.57 48.78,25.89 22.94,89.21 103.36,50.39 112.08,-54.09 235.73,-82.85 352.89,-126.9 90.07,14.25 237.15,-43.11 327.75,-60.65l433.91 -83.98 253.53 -27.73 0 0c-6.21,-145.14 43.06,-303.91 -18.63,-435.42 -30.27,-64.53 -199.87,22.42 -208.32,-48.36 -28.03,-234.8 106.15,-463.24 119.04,-699.36 3.61,-66.22 -19.82,-143.44 -70.68,-186 -29.78,-24.92 -100,70.54 -111.6,33.48 -45.98,-146.9 44.93,-322.81 -22.32,-461.28 -34.68,-71.41 -161.21,-21.02 -230.64,-59.52 -71.34,-39.56 -138.51,-96.33 -178.56,-167.4 -51.25,-90.96 -119.78,-202.68 -85.56,-301.32 40.3,-116.16 183.52,-163.68 275.28,-245.52l0 0z" />
  </g>
  <!-- 森町 -->
  <g id="morityou" title="森町" fill="rgb(60, 128, 74)">    
    <path d="M7160.76 15261.6c-9.92,-33.48 -32.28,-65.62 -29.76,-100.44 3.94,-54.37 15.85,-112.48 48.36,-156.24 35.5,-47.78 120.3,-50.04 145.08,-104.16 41.11,-89.77 -9.74,-207.02 37.2,-293.88 66.31,-122.71 211.26,-187.56 286.44,-305.04 28.81,-45.01 7.44,-106.64 11.16,-159.96l0 0c23.56,-4.96 50.14,-2.33 70.68,-14.88 48.09,-29.38 151.77,-55.81 130.2,-107.88 -36.07,-87.07 -201.39,-65.72 -238.08,-152.52 -40.01,-94.65 -18.73,-224.15 44.64,-305.04 123.87,-158.14 300.74,-273.67 479.88,-364.56 82.01,-41.61 194.49,25.34 275.28,-18.6 142.66,-77.59 216.02,-253.89 360.84,-327.36 47.97,-24.33 94.72,89.56 145.08,70.68 57.74,-21.65 62,-106.64 93,-159.96l0 0c2.48,193.44 -80.11,407.82 7.44,580.32 60.57,119.34 264.32,75.67 368.28,159.96 46.72,37.88 29.76,116.56 44.64,174.84l0 0c-39.68,40.92 -63.37,110.57 -119.04,122.76 -89.24,19.54 -187.72,-73.5 -271.56,-37.2 -65.16,28.21 -44.47,138.35 -89.28,193.44 -167.75,206.23 -399.11,360.58 -543.12,584.04 -112.82,175.07 -127.9,397.24 -212.04,587.76 -24.64,55.81 -74.4,96.72 -111.6,145.08l0 0c0,0 -241.8,349.68 -260.4,364.56 -18.6,14.88 -226.92,7.44 -245.52,7.44 -18.6,0 -252.96,234.36 -252.96,234.36 37.2,-155 138.37,-307.87 111.6,-465 -11.23,-65.92 -138.13,-5.77 -197.16,-37.2 -42.9,-22.84 -59.52,-76.88 -89.28,-115.32l0 0z" />
  </g>
  <!-- 袋井市 -->
  <g id="fukuroi" title="袋井市" fill="rgb(60, 128, 74)">    
    <path d="M7160.76 15261.6c29.76,38.44 46.38,92.48 89.28,115.32 59.03,31.43 185.93,-28.72 197.16,37.2 26.77,157.13 -74.4,310 -111.6,465 0,0 234.36,-234.36 252.96,-234.36 18.6,0 226.92,7.44 245.52,-7.44 18.6,-14.88 260.4,-364.56 260.4,-364.56l0 0c-9.92,162.44 -79.33,332.32 -29.76,487.32 54.77,171.25 255.81,265.01 323.64,431.52 23.65,58.06 -112.31,118.57 -78.12,171.12 56.55,86.92 178.11,113.68 279,137.64 102.55,24.35 220.81,-41.11 316.2,3.72 54.29,25.51 94.69,125.45 55.8,171.12 -92.45,108.57 -273.71,104.96 -375.72,204.6 -28.96,28.28 56.69,67.41 55.8,107.88 -0.62,28.05 -61.61,31.55 -59.52,59.52 2.83,37.85 94.93,60.09 70.68,89.28 -60.58,72.95 -186.23,62.83 -252.96,130.2 -68.68,69.34 -138.91,162.93 -133.92,260.4 5.77,112.84 108.32,198.34 162.47,297.5l0 0 -570.78 -10.27 -164.54 17.99 0 0c-6.21,-145.14 43.06,-303.91 -18.63,-435.42 -30.27,-64.53 -199.87,22.42 -208.32,-48.36 -28.03,-234.8 106.15,-463.24 119.04,-699.36 3.61,-66.22 -19.82,-143.44 -70.68,-186 -29.78,-24.92 -100,70.54 -111.6,33.48 -45.98,-146.9 44.93,-322.81 -22.32,-461.28 -34.68,-71.41 -161.21,-21.02 -230.64,-59.52 -71.34,-39.56 -138.51,-96.33 -178.56,-167.4 -51.25,-90.96 -119.78,-202.68 -85.56,-301.32 40.3,-116.16 183.52,-163.68 275.28,-245.52l0 0z" />
  </g>
  <!-- 浜松市 -->
  <g id="hamamatsu" title="浜松市" fill="rgb(60, 128, 74)">  
    <path d="M2126.73 15853.38c104.74,91.63 188.09,216.1 314.23,274.89 96.11,44.8 211.68,13.06 317.52,19.59l0 0c29.37,-1.22 80.85,16.64 102.42,11.19 0,-33.78 -3.87,-76.53 -20.48,-106.37 -25.77,-46.32 -94.56,-101.52 -14.9,-133.43 54.85,-21.98 27.6,-93.26 38.17,-143.69 3.16,-25.38 -5.5,-57.04 0,-79.31 7.09,-28.65 24.8,-59.81 31.66,-87.71l2.79 0c3.56,24.82 25.46,49.22 39.11,69.05 12.21,17.73 27.09,22.83 45.63,31.72 16.23,7.79 34.72,57.7 51.21,45.72l84.73 -61.58c20.47,0 21.6,86.08 20.48,102.64 -4.12,60.45 -49.79,116.88 -70.76,174.48 -26.43,72.63 -47.48,98.74 -124.77,119.44 -18.92,7.33 -34.31,1.18 -52.14,5.59l-1.87 84.91 0.94 0.94c23.84,0 69.4,-0.34 86.59,14.93 20.68,18.35 7.24,57.26 13.04,80.24 15.58,2.2 30.52,1.87 45.62,1.87 12.8,-52.05 50.95,-84.43 95.91,-111.04 34.8,-20.61 -21.91,-148.5 53.07,-192.21 32.85,-19.16 55.06,-10.35 85.66,-41.06 35.85,-36 59.6,-29.87 104.29,-40.12 26.37,-10.21 56.95,3.18 84.73,0.93 37.52,-3.05 92.32,-72.09 135.01,-49.45 16.7,8.86 18.56,22.18 27.94,37.32 15.3,24.72 41.5,22.58 51.21,51.32 5.68,16.81 15.86,33.57 29.79,44.79 27.21,21.94 36.28,-42.96 40.97,-60.65 13.91,-52.36 -0.41,-74.64 31.66,-124.1 93.35,-24.06 20.61,-167.57 109.87,-181.94 39.42,-6.35 49.81,8.96 60.53,43.85 6.8,22.17 136.67,75.33 165.74,93.31 14.46,8.95 52.14,21.24 52.14,41.98 0,20.13 -39.8,14.68 -51.21,26.13 -18.75,18.79 54.74,82.03 -38.18,94.24 -64.93,8.54 -94.5,-9.82 -139.67,51.32 -14.28,19.32 -52.57,58.99 -74.49,65.31 -37.96,10.96 -47.7,5.94 -59.59,47.59 -5.08,17.78 -30.52,28.16 -36.31,45.72 -13.19,40.04 138.08,8.27 133.15,27.06 -7.44,28.38 -3.98,82.66 -42.83,83.98 -73.07,2.48 -71.91,-71.64 -115.46,-93.31 -41.64,-20.73 -25.14,20.05 -25.14,34.52 0,29.44 -14.98,69.48 -29.8,93.31 -23.26,32.18 -62.75,95.61 -99.63,112.9 -35.86,16.8 -56.79,54.68 -74.49,87.71 -24.88,46.46 -75.33,97.51 -82.87,147.42 -8.12,53.68 -8.09,140.42 -29.79,187.55 3.72,40.04 -27.03,97.12 -41.9,134.36 -16.79,42.07 -61.3,163.95 6.51,174.48 34.19,5.3 69.07,-14.76 101.5,-22.39 38.16,-8.97 79.27,3.73 118.25,3.73 59.26,-18.66 81.97,-119.34 94.04,-172.61 13.75,-60.73 -16.5,-82.19 -23.28,-135.3 -4.21,-33.05 28.06,-54.62 29.8,-87.71 4.08,-77.55 42.35,-31.3 75.42,1.87 14.15,14.18 31.36,22.6 46.56,35.46 27.26,23.05 40.24,-17.17 57.73,-32.66 28.61,-109.1 9.59,-215.18 109.87,-295.78 35.15,-28.24 82.12,-29.41 111.73,-55.99 14.15,-12.71 65.44,-66.13 81.01,-69.98 8.47,34.27 57.57,58.23 19.55,90.51 -42.08,35.74 -121.91,81.24 -148.05,130.63 -27.23,51.42 -34.94,121.3 40.04,121.3 24.74,100.05 -12.66,119.36 -99.63,148.35 -77.55,25.84 -78.92,66.05 -132.22,119.44 -3.69,32.38 0,57.93 0,89.57 0,28.12 -28.42,33.04 -48.41,41.99 -32.08,14.38 -49.17,61.72 -41.9,94.24 6.72,30.09 11.92,50 36.31,72.78 33.64,31.44 -8.71,70.18 42.83,100.77 28.14,16.69 72.42,44.47 92.18,70.91l-135.94 -7.46c-58.34,-3.2 -87.46,-85.69 -152.71,-64.38 -45.26,14.79 -110.13,10.17 -148.98,41.05 13.99,18.55 48.55,35.99 69.84,48.52 29.68,26.16 89.36,120.8 105.22,156.76 29.49,66.83 -128.41,31.45 -142.47,27.99 15.62,20.6 -13.71,92.08 18.63,93.31l365 13.99c163.02,6.24 317.54,0.33 475.8,41.99l922.74 204.34c166.44,67.42 346.98,77.15 513.98,151.16 78,34.56 134.02,55.91 218.81,67.18 23.38,3.11 184.16,39.36 191.81,8.4 -56.46,0 -165.06,-52.17 -184.36,-108.24 -13.78,-40.06 20.68,-63.39 23.28,-99.84 3.23,-45.19 -33.83,-42.03 0.93,-94.24 21.89,-15.13 57.83,-127.56 76.19,-135.34l0 0c42.9,-249.73 73.84,-501.82 128.71,-749.2 85.8,-386.85 245.01,-758.77 292.98,-1152.11 44.29,-363.16 -151.12,-756.4 -18.6,-1097.4 87.7,-225.67 382.23,-305.3 602.64,-405.48 102.94,-46.79 230.63,11.54 338.52,-22.32 69.84,-21.92 114.08,-91.76 171.12,-137.64l0 0c23.56,-4.96 50.14,-2.33 70.68,-14.88 48.09,-29.38 151.77,-55.81 130.2,-107.88 -36.07,-87.07 -201.39,-65.72 -238.08,-152.52 -40.01,-94.65 -18.73,-224.15 44.64,-305.04 123.87,-158.14 300.74,-273.67 479.88,-364.56 82.01,-41.61 194.49,25.34 275.28,-18.6 142.66,-77.59 216.02,-253.89 360.84,-327.36 47.97,-24.33 94.72,89.56 145.08,70.68 57.74,-21.65 62,-106.64 93,-159.96l0 0c110.36,-122.76 220.72,-245.52 331.08,-368.28l0 0c-22.32,-66.96 -28.82,-141.5 -66.96,-200.88 -50.71,-78.97 -234.05,-119.99 -193.44,-204.6 70.87,-147.64 306.17,-139.51 416.64,-260.4 38.8,-42.46 -9.46,-115.06 -22.32,-171.12 -21.94,-95.62 -97.71,-185.91 -81.84,-282.72 35.92,-219.12 254.8,-404.23 230.64,-624.96 -18.94,-173 -193.65,-303.72 -342.24,-394.32 -76.49,-46.64 -192.19,70.29 -267.84,22.32 -61.63,-39.08 -17.81,-145.41 -37.2,-215.76 -24.17,-87.73 -118.71,-169.39 -93,-256.68 81.16,-275.56 281.37,-502.19 394.32,-766.32 52.86,-123.6 145.6,-263.98 100.44,-390.6 -42.14,-118.14 -251.62,-98.74 -313.81,-207.65 -50.69,-88.79 62.21,-212.72 20.48,-306.05 -24.05,-53.78 -177.03,23.34 -173.18,-35.46 6.34,-96.73 159.24,-128.27 189.94,-220.2 44.81,-134.17 16.74,-282.42 25.1,-423.63l0 0c-14.85,7.38 -31.04,9.9 -48.41,5.62 -46.74,-11.52 -86.94,-53.68 -138.74,-47.59 -28.49,3.34 -72.99,31.91 -96.83,25.19 -79.43,33.25 -103.81,85.42 -166.67,135.3 -57.22,45.39 -81.45,21.46 -144.33,21.46 -0.66,0.99 -2.09,1.46 -3.72,1.86 -12.65,51.43 -48.45,98.48 -72.63,145.56 -15.73,30.61 -81.82,7.19 -120.11,19.6 -33.14,10.73 -68.96,-1.54 -102.43,0.93 -11.77,0.87 -71.04,89.05 -94.04,99.84 -70.89,31.15 -132.66,3.12 -199.26,19.59 -23.84,96.92 -28.13,286.4 -143.39,325.64 -129.5,44.1 -197.43,-26.12 -320.31,-26.12l-0.93 0.93c-19.51,78.91 -138.75,96.26 -152.7,144.63 -18.59,64.48 15.64,155.82 2.79,226.73 -31.37,56.79 -84.11,309.06 -198.33,237 -99.5,-62.76 -258.43,-55.33 -350.1,27.99 -26.11,23.74 -56.89,81.5 -92.18,89.58l0 0c-14.47,16.56 -27.5,27.06 -51.21,27.06 -18.54,0 -27.37,-2.68 -42.83,7.46 -36.71,24.06 48.98,62.51 43.76,87.71 -5.13,24.71 -39,21.46 -59.59,21.46 -42.29,0 -67.12,0.99 -87.53,38.26 -13.96,30.04 -6.23,74.71 -17.69,109.16 -9.8,29.44 -14.65,59.23 -25.14,89.58 -24.15,69.88 -88.3,31.72 -133.15,31.72 -13.55,0 -38.43,65.49 -53.07,76.51 -16.28,12.27 47.91,80.87 58.66,94.24 38.6,48.02 70.73,54.55 126.63,41.99 77.88,-17.51 115.23,113.73 94.04,169.82 -16.69,36.9 -57.92,52.92 -27,94.24 15.81,21.12 49.37,50.49 73.56,60.65 48.5,20.36 -63.2,109.17 -87.52,109.17 -35.11,0 -46.88,-49.2 -73.56,-66.25 -22.68,-14.48 -37.25,110.03 -37.25,129.7 0,42.33 41.28,34.9 0.93,78.37 -64.39,69.35 -68.52,156.77 -166.67,132.5 -4.02,-20.36 -22.34,-46.89 -29.79,-68.11 -16.25,-46.24 -28.78,-12.46 -67.04,-2.8 -5.26,21.3 -23.48,95.97 -13.04,112.9 20.4,33.11 71.33,23 99.63,55.05 5.28,64.38 -43.38,83.8 -14.9,152.09 20.84,50 27.94,96.56 27.94,150.22 0,30.29 -47,43.33 -65.18,61.59 -22.52,22.6 -41.1,117.56 -51.21,117.56 -53.91,0 -112.32,-5.33 -151.78,-44.79 -30.93,-30.93 -52.44,34.08 -74.49,60.65 -18.2,59.39 24.68,240.88 -1.86,272.46 -53.19,63.26 -130.64,134.21 -204.84,167.02 -23.74,10.49 -44.56,36.28 -67.05,52.25l-201.12 142.76 -95.9 151.16c-16.07,25.33 -68.1,111.91 -91.25,116.63 -26.44,5.38 -34.79,6.77 -51.21,29.86 -21.12,29.72 -69.74,26.75 -76.36,63.45 -13.4,74.36 5.33,87.76 -40.03,154.89 -85.78,77.13 -102.63,169.56 -137.81,269.65 -31.64,90.04 -26.05,168.45 71.7,193.15 7.56,30.56 -48.1,117.01 -74.49,132.49 -105.16,93.64 152.28,218.6 10.24,281.79 -31.36,13.95 -50.77,-36.14 -83.8,-25.19 -23.86,7.9 -79.81,114.65 -86.6,139.02 -20.69,74.29 16.4,147.99 -94.04,141.83 -27.51,-1.53 -28.42,77.24 -41.9,101.7 -18.32,29.54 -55.2,67.22 -87.52,38.26 -34.78,-31.18 -43.2,-29.3 -90.32,-19.59 -136.35,28.09 -90.59,115.1 -163.88,192.21 -12.48,13.12 -56.66,25.32 -54,41.05 4.48,26.56 18.31,50.48 25.14,76.51 6.63,25.3 2.86,63.31 -9.32,85.85 -16.93,31.36 -59.11,53.88 -56.79,88.64 2.46,36.99 29.23,115.9 -12.11,139.96 -53.22,47.37 -73.13,47.3 -64.25,128.76 7.44,68.17 17.54,130.8 -40.97,178.22 -109.34,88.6 -260.66,221.13 -397.58,248.19 -52.37,10.34 -90.87,35.04 -136.88,50.39 -38.1,46.76 -48.16,100.11 -38.17,158.62 9.3,54.42 -68.52,121.47 -98.7,164.22 -31.55,44.67 -25.49,35.42 -69.84,26.13 -19.74,-4.14 -38.77,-10.27 -59.59,-10.27 -63.38,0 -125.25,-21.76 -189.02,-18.66 -32.76,-10.89 -126.05,4.66 -163.87,9.33 -13.1,53 -67.12,115.82 -117.32,143.69 -63.39,35.21 -95.98,-27.99 -154.57,-27.99 -26.13,39.06 -163.85,123.35 -211.36,144.63 -40.56,18.16 -171.51,19.83 -189.95,46.65 -13.88,20.17 -44.94,98.96 -34.45,117.57 7.66,13.57 30.72,36.27 30.72,49.45l-76.35 42.92c-2.17,7.66 -3.44,9.06 -2.79,19.59 -13.38,50.46 -35.06,71.5 -73.56,101.71 -24.32,19.07 -55.33,32.1 -24.21,68.11 54.36,62.93 75.58,91.11 55.87,175.42 -11.69,49.99 -31.39,101.63 0.93,147.42 6.53,9.25 8.44,17.79 7,25.57l0 0z" />
  </g>
  <!-- 三島市 -->
  <g id="mishima" title="三島市" fill="rgb(60, 128, 74)">    
    <path d="M20965.68 9915.96c17.34,108.84 55.88,216.38 52.02,326.51 -1.98,56.47 -45.94,103.26 -68.9,154.89l0 0c8.05,36.7 10.59,75.07 24.17,110.1 25.74,66.37 90.32,121.08 93.11,192.22 3.81,97.07 -49.66,187.85 -74.49,281.78l0 0c37.24,0 88.84,-29.37 111.74,0 24.77,31.77 -45.92,89.79 -18.63,119.44 29.39,31.93 86.81,1.16 130.22,1.74l0 0c45.88,-80.6 68.53,-179.96 137.64,-241.8 36.14,-32.34 115.57,27.32 145.08,-11.16 173.62,-226.41 280.18,-497.33 430.69,-739.7 153.41,-247.06 320.49,-485.38 480.73,-728.07l0 0c-92.06,-17.53 -121.03,-94.77 -167.37,-161.91l0 0c-281.49,114.18 -556.63,245.53 -844.49,342.56 -71.91,24.24 -168.21,-29.48 -226.92,18.6 -101.18,82.86 -136.4,223.2 -204.6,334.8l0 0z" />
  </g>
  <!-- 清水町 -->
  <g id="shimizutyou" title="清水町" fill="rgb(60, 128, 74)">    
    <path d="M20948.8 10397.36c8.05,36.7 10.59,75.07 24.17,110.1 25.74,66.37 90.32,121.08 93.11,192.22 3.81,97.07 -49.66,187.85 -74.49,281.78l0 0c-87.53,24.88 -220.25,155.19 -262.57,74.65 -87.39,-166.3 3.75,-375.72 5.62,-563.57l0 0c71.38,-31.72 142.77,-63.45 214.16,-95.18l0 0z" />
  </g>
  <!-- 函南町 -->
  <g id="kannami" title="函南町" fill="rgb(60, 128, 74)">    
    <path d="M21079.12 11336.03c45.26,-77.79 90.53,-155.59 135.8,-233.39l0 0c45.88,-80.6 68.53,-179.96 137.64,-241.8 36.14,-32.34 115.57,27.32 145.08,-11.16 173.62,-226.41 280.18,-497.33 430.69,-739.7 153.41,-247.06 320.49,-485.38 480.73,-728.07l0 0c7.55,1.44 15.53,2.48 23.98,3.07 45.14,3.19 146.47,87.59 166.58,125.04 0,58.05 28.64,106.88 41.9,160.48 9.96,40.29 -53,79.83 -27.94,108.24 14.26,16.15 40.76,38.68 37.25,61.58 -1.76,11.54 -32.42,92.4 -21.42,96.11l6.69 7.15c58.29,131.97 165.6,251.95 174.88,395.93 3.4,52.76 -121.92,16.32 -145.26,63.77 -26.55,53.97 32.35,118.75 26.04,178.56 -15.04,142.45 -59.52,280.24 -89.28,420.36l0 0c-248.32,3.04 -505.05,-55.02 -744.96,9.12 -188.57,50.41 -309.63,245.84 -489.76,320.98 -88.81,37.04 -192.43,2.49 -288.64,3.73l0 0z" />
  </g>
  <!-- 伊豆の国市 -->
  <g id="izunokuni" title="伊豆の国市" fill="rgb(60, 128, 74)">    
    <path d="M20999.16 12207.48c-21.75,-36.06 -75.1,-67.25 -65.26,-108.2 15.67,-65.22 128.04,-87.81 128.49,-154.89 0.39,-57.59 -123.88,-60.04 -126.63,-117.57 -2.23,-46.63 107.92,-30.78 117.32,-76.51 24.12,-117.33 -35.44,-238.74 -27.93,-358.3 1.62,-25.86 35.98,-37.32 53.97,-55.98l0 0c96.21,-1.24 199.83,33.31 288.64,-3.73 180.13,-75.14 301.19,-270.57 489.76,-320.98 239.91,-64.14 496.64,-6.08 744.96,-9.12l0 0c57.72,113.76 115.44,227.52 173.16,341.29 0,0 -98.69,82.11 -98.69,91.44 0,9.33 33.52,289.25 33.52,289.25 65.17,41.05 130.35,82.11 195.53,123.17l0 0c-26.07,24.88 -68.82,39.86 -78.21,74.64 -15.78,58.42 6.04,120.88 9.05,181.33l0 0c-55.8,-19.84 -111.6,-39.68 -167.4,-59.52 0,0 11.16,133.92 7.44,152.52 -3.72,18.6 -145.08,78.12 -145.08,78.12 -40.92,-59.52 -54.55,-154.83 -122.76,-178.56 -82.28,-28.63 -176.82,12.83 -257.24,46.32 -247.4,103.03 -455.44,310.68 -718.82,360.16 -90.78,17.05 -112.83,-178.73 -204.85,-186.61 -55.94,-4.79 20.24,122.72 -13.03,167.95 -24.5,33.3 -97.45,49.37 -122.91,16.8 -63.11,-80.74 -62.02,-195.35 -93.03,-293.02l0 0z" />
  </g>
  <!-- 伊豆市 -->
  <g id="izu" title="伊豆市" fill="rgb(60, 128, 74)">    
    <path d="M19253.24 13349.5c110.18,-53.46 209.14,-144.31 330.54,-160.4 165.75,-21.97 372.88,160.06 499.08,50.39 117.04,-101.71 -125.29,-348.72 -22.34,-464.67 242.73,-273.37 625.76,-378.22 938.64,-567.34l0 0c31.01,97.67 29.92,212.28 93.03,293.02 25.46,32.57 98.41,16.5 122.91,-16.8 33.27,-45.23 -42.91,-172.74 13.03,-167.95 92.02,7.88 114.07,203.66 204.85,186.61 263.38,-49.48 471.42,-257.13 718.82,-360.16 80.42,-33.49 174.96,-74.95 257.24,-46.32 68.21,23.73 81.84,119.04 122.76,178.56 0,0 141.36,-59.52 145.08,-78.12 3.72,-18.6 -7.44,-152.52 -7.44,-152.52 55.8,19.84 111.6,39.68 167.4,59.52l0 0c-29.76,136.4 -119.76,272.97 -89.28,409.2 17.6,78.65 129.09,108.01 208.32,122.76 58.61,10.91 117.36,-77.84 171.12,-52.08 41.43,19.85 33.49,99.8 7.44,137.64 -35.24,51.18 -141.66,31.17 -163.68,89.28 -31.39,82.84 49.71,177.8 29.76,264.12 -35.13,151.98 -201.62,272.27 -189.72,427.8 9.88,129.18 263.94,173.08 245.52,301.32 -23.95,166.78 -236.51,240.82 -342.24,372 -16.27,20.19 -12.34,50.38 -18.51,75.57l0 0c-62.03,126.09 -72.84,295.09 -186.09,378.27 -69.59,51.11 -168.42,-73.36 -252.96,-55.8 -182.85,37.98 -363.18,109.96 -517.08,215.76 -32.65,22.44 27.28,74.4 40.92,111.6l0 0c-182.28,88.04 -348.03,226.03 -546.84,264.12 -89.4,17.12 -161.53,-87.27 -249.24,-111.6 -59.91,-16.62 -124.21,-6.16 -186.32,-9.24l0 0c-11.18,-65.32 20.49,-157.57 -33.52,-195.95 -74.63,-53.03 -192.56,19.91 -273.75,-22.39 -162.28,-84.54 -306.88,-206.48 -428.31,-343.37 -57.86,-65.22 -6.7,-232.79 -93.11,-244.46 -102.72,-13.88 -140.07,166.84 -238.37,199.67 -144,48.1 -311.65,-20.02 -454.38,31.73 -45.09,16.35 7.17,105.57 -24.21,141.82 -29.8,34.42 -87.52,25.18 -131.27,37.77l0 0c-7.15,-11.55 -13.55,-13.17 -54,0.49 -28.21,9.53 -43.56,-27.48 -59.59,-44.79 -11.85,-12.81 -64.81,-61.91 -53.07,-72.78 16.6,-15.36 36.75,-4.43 51.21,-28.92 39.07,-66.13 9.25,-128.41 -4.66,-196.88 -20.63,-101.48 94.61,-127.89 124.77,-215.54 18.5,-53.74 50.64,-20.64 92.18,-10.26 66.95,16.72 88.93,-65.17 105.22,-112.9 20.3,-61.12 144.97,-13.23 126.63,-79.31 -15.99,-57.64 -60.35,-102.35 -73.56,-161.42 -12.69,-56.7 -43.81,-81.93 -70.76,-130.63 -36.49,-65.91 -23.69,-116.96 -37.25,-185.68 -4.47,-22.64 -9.16,-42.63 -14.92,-60.74l0 0z" />
  </g>
  <!-- 西伊豆町 -->
  <g id="nishiizu" title="西伊豆町" fill="rgb(60, 128, 74)">    
    <path d="M19234.27 16225.93c9.78,-83.4 50,-68.18 -81.56,-89.27 -27.55,-4.42 -71.92,-14.53 -10.25,-39.19 12.98,-5.19 48.02,-39.37 27.94,-50.39 -52.63,-28.87 -47.52,2.68 -58.66,-68.11 -3.84,-45.85 -32.21,-102 -52.15,-143.69 -14.48,-30.25 -64.24,-76.83 -64.24,-104.51 0,-30.7 15.32,-52.17 -9.32,-75.57 -48.52,-46.1 -13.96,-59.41 -13.96,-115.7 29.37,7.26 26,70.91 70.76,70.91 37.3,0 37.25,-30.32 37.25,-55.98 0,-38.02 21.74,-24.91 34.45,-46.66 4.43,-7.57 -6.52,-75.84 -6.52,-90.51 -37.73,0 -65.04,35.46 -107.08,35.46 -31.19,0 -40.56,-55.35 -53.07,-81.18 -29.2,-55.78 -27.57,-96.9 20.48,-138.09 17.58,-15.08 81.15,-76.5 95.91,-57.85 6.47,8.16 81.01,119.87 81.01,68.11 0,-17.8 -19.31,-106.1 -28.87,-115.7 -19.41,-19.52 -36.44,-33.34 -40.04,-61.58 -4.17,-32.76 -11.76,-61.29 -26.07,-91.44 -15.81,-33.34 0.41,-49.82 30.73,-36.39 53.76,23.81 36.04,-35.95 48.42,-51.32 36.78,-45.63 36.02,4.57 66.11,2.8 45.9,-2.71 54.85,-114.64 52.14,-147.42 -18.14,-19.31 -7.87,-30.74 -36.31,-41.06 -15.63,-5.68 -42.79,0.32 -55.87,-10.26 -22.87,-18.48 -28.9,-33.49 -34.46,-42.48l0 0c43.75,-12.59 101.47,-3.35 131.27,-37.77 31.38,-36.25 -20.88,-125.47 24.21,-141.82 142.73,-51.75 310.38,16.37 454.38,-31.73 98.3,-32.83 135.65,-213.55 238.37,-199.67 86.41,11.67 35.25,179.24 93.11,244.46 121.43,136.89 266.03,258.83 428.31,343.37 81.19,42.3 199.12,-30.64 273.75,22.39 54.01,38.38 22.34,130.63 33.52,195.95l0 0c-34.14,26.75 -91.13,38.38 -102.42,80.24 -58.38,216.44 -65.78,443.52 -98.67,665.28l0 0c-109.56,49.14 -223.86,205.99 -328.68,147.42 -99.51,-55.6 40.09,-243.78 -18.63,-341.5 -32.62,-54.29 -156.79,-59.56 -189.94,-5.6 -39.6,64.46 85.76,148.64 58.66,219.27 -16.65,43.39 -69.41,-108.67 -109.88,-85.84 -189.93,107.16 -312.48,308.6 -495.38,427.35 -80.72,52.41 -185.84,50.18 -278.75,75.27l0 0z" />
  </g>
  <!-- 伊東市 -->
  <g id="itou" title="伊東市" fill="rgb(60, 128, 74)">    
    <path d="M22906 11847.35c-26.07,24.88 -68.82,39.86 -78.21,74.64 -15.78,58.42 6.04,120.88 9.05,181.33l0 0c-29.76,136.4 -119.76,272.97 -89.28,409.2 17.6,78.65 129.09,108.01 208.32,122.76 58.61,10.91 117.36,-77.84 171.12,-52.08 41.43,19.85 33.49,99.8 7.44,137.64 -35.24,51.18 -141.66,31.17 -163.68,89.28 -31.39,82.84 49.71,177.8 29.76,264.12 -35.13,151.98 -201.62,272.27 -189.72,427.8 9.88,129.18 263.94,173.08 245.52,301.32 -23.95,166.78 -236.51,240.82 -342.24,372 -16.27,20.19 -12.34,50.38 -18.51,75.57l0 0c135.32,122.55 253.54,267.16 405.96,367.63 116.25,76.63 258.45,103.68 387.67,155.52l0 0c49.97,-65.63 92.84,-141.39 113.33,-212.44 22.87,-79.3 38.26,-75.58 122.9,-75.58 74.85,0 115.06,-26.99 175.99,-72.78l97.76 -39.18c17.55,-7.03 4.09,-50.55 6.52,-67.19 7.97,-54.37 76.58,-108.07 96.84,-163.28 19.95,-54.38 12.9,-42.62 -44.7,-49.46 -87.04,-10.33 -28.74,-66.47 -22.34,-116.63 4.39,-34.47 43.79,-36.18 56.8,-59.71 21.33,-38.6 25.14,-54.08 25.14,-98.91 -7.92,-51.5 -2.8,-138.39 27.93,-181.01 14.95,-20.75 65.09,-107.69 66.11,-132.5 0.55,-13.54 -12.1,-20.01 -12.1,-32.66 0,-27.62 20.82,-36.82 7.44,-65.31 -6.14,-13.06 -59.13,-56.31 -42.83,-67.18 68.35,-45.55 29.4,-72.94 38.18,-143.7l-13.97 -84.9c-3.96,-24.1 -52.54,18.59 -66.11,27.05 -82.45,51.39 -87.54,16.83 -135.01,-46.65 -41.07,-54.91 22.76,-52.27 -13.04,-109.17 -36.75,-58.39 -19.52,-101.96 -87.52,-139.96 -13.92,-7.78 -76.89,-33.94 -94.04,-35.45 -47.8,-4.21 -70.14,26.29 -115.46,28.92 -68.62,-26.58 -138.81,8.88 -157.36,-87.71 -11.13,-57.93 -5.27,-106.81 -7.45,-167.95 -3.49,-98.02 -186.14,-150.02 -142.46,-277.12 50.41,-146.64 166.44,17.9 216.95,-64.38 2.15,-25.32 -2.59,-31.87 -16.76,-49.46 -38.64,-47.95 0.63,-222.77 5.58,-278.05 1.62,-18.15 0.49,-35.61 -1.32,-52.83l0 0c-55.13,-40.55 -97.71,-131.73 -165.4,-121.65 -86.59,12.89 -110,156.68 -195.53,175.41 -102.28,22.39 -204.84,-43.54 -307.27,-65.31l0 0z" />
  </g>
  <!-- 東伊豆町 -->
  <g id="higashiizu" title="東伊豆町" fill="rgb(60, 128, 74)">    
    <path d="M23489.2 14774.08c-129.22,-51.84 -271.42,-78.89 -387.67,-155.52 -152.42,-100.47 -270.64,-245.08 -405.96,-367.63l0 0c-62.03,126.09 -72.84,295.09 -186.09,378.27 -69.59,51.11 -168.42,-73.36 -252.96,-55.8 -182.85,37.98 -363.18,109.96 -517.08,215.76 -32.65,22.44 27.28,74.4 40.92,111.6l0 0c215.76,314.96 444.43,621.46 647.28,944.88 70.82,112.92 114.55,240.73 171.82,361.09l0 0c18.48,-23.01 40.15,-51.9 65.43,-44.88 46.36,12.89 61.56,59.72 124.77,31.73 53.07,-23.51 100.56,22.39 100.56,-72.78l-0.93 -0.94c-17.12,-3.39 -38.35,-7.9 -52.14,-17.72 -68.52,-48.76 -27.8,-57.99 13.96,-96.11 52.44,-47.89 116.58,-90.91 163.88,-144.63 68.93,-78.31 75.98,-135.72 81.01,-237.93 6.37,-25.56 0.57,-51.42 20.48,-74.64l62.39 -72.78c26.96,-31.45 10.26,-77.12 51.21,-110.1 15.57,-12.55 71.7,-52.19 71.7,-72.78 0,-50.62 12.17,-77.44 -25.14,-111.97 -38.55,-35.69 17.75,-95.54 6.51,-148.36 19.2,-67.27 73.75,-118.16 123.84,-166.09 27.89,-26.69 56.03,-58.3 82.21,-92.67l0 0z" />
  </g>
  <!-- 河津町 -->
  <g id="kawazu" title="河津町" fill="rgb(60, 128, 74)">    
    <path d="M21780.36 14900.76c-182.28,88.04 -348.03,226.03 -546.84,264.12 -89.4,17.12 -161.53,-87.27 -249.24,-111.6 -59.91,-16.62 -124.21,-6.16 -186.32,-9.24l0 0c-34.14,26.75 -91.13,38.38 -102.42,80.24 -58.38,216.44 -65.78,443.52 -98.67,665.28l0 0c0,32.65 -24.22,76.07 0,97.97 77.71,70.25 183.72,100.77 275.58,151.16l0 0c91.87,26.13 181.54,61.86 275.61,78.37 112.31,19.72 257.21,-47.7 340.78,29.86 67.09,62.27 -62.61,197.38 -13.03,274.32 46.58,72.29 190.92,16.29 243.95,83.98 91.72,117.06 50.29,310.32 150.84,419.88 54.83,59.74 162.05,6.22 243.07,9.33l0 0c-4.43,-10.67 19.14,-65.1 24.21,-76.51 18.03,-52.94 54.85,-45.58 77.28,-88.64 13.64,-26.17 36.69,-68.1 30.73,-97.97 -5.22,-26.2 -15.83,-58.36 -15.83,-84.91 0,-20.57 68.63,-132.54 85.66,-145.56 41.15,-31.49 38.43,-45.58 82.87,-22.39 18.78,9.79 29.34,-24.69 51.21,-29.86 31.3,-7.41 99.17,13.12 108.94,-37.33 7.52,-38.87 -3.18,-94.07 23.28,-125.03 5.47,-4.81 11.28,-11.84 17.44,-19.5l0 0c-57.27,-120.36 -101,-248.17 -171.82,-361.09 -202.85,-323.42 -431.52,-629.92 -647.28,-944.88l0 0z" />
  </g>
  <!-- 松崎町 -->
  <g id="matuzaki" title="松崎町" fill="rgb(60, 128, 74)">    
    <path d="M20596.87 15789.56c0,32.65 -24.22,76.07 0,97.97 77.71,70.25 183.72,100.77 275.58,151.16l0 0c-28.55,123.16 -9,268.96 -85.67,369.49 -70.39,92.3 -227.66,74.16 -312.85,153.02 -108.68,100.61 -199.62,228.19 -249.54,367.63 -22.47,62.77 32.28,129.38 48.42,194.08l0 0c-179.4,31.11 -357.53,115.94 -538.18,93.31 -122.24,-15.31 -200.78,-144.67 -311,-199.68 -48.92,-24.41 -108.68,-53.89 -160.15,-35.46 -168.95,60.52 -313.77,174.27 -470.65,261.4l0 0c-8.38,-40.63 -17.58,-78.02 -6.99,-127.97 13.49,-63.67 28.63,-127.62 26.08,-194.07 -1.25,-32.81 -54.21,-79.23 -28.87,-88.65 58.28,-21.66 72.91,-33.16 85.66,-97.03 5.3,-26.6 24.75,-12.83 39.11,-28.93 19.47,-21.81 54.01,-20.05 53.07,-18.66 3.26,-1.63 5.81,-2.72 9.32,-3.73 20.26,-5.83 13.75,-10.9 37.24,-39.19 90.19,41.04 38.79,-104.69 -23.28,-120.37l0 -1.86c19.8,-6.69 70.17,-3.12 79.15,-25.2 17,-41.84 21.7,-51.32 68.9,-51.32 38.58,0 32.79,-20.67 56.8,-41.05 15.31,-13.01 90.86,-44.18 87.52,-51.32 -11.09,-23.71 -44.97,-84.81 -43.76,-109.17 0.32,-6.48 0.84,-12.48 1.49,-18.03l0 0c92.91,-25.09 198.03,-22.86 278.75,-75.27 182.9,-118.75 305.45,-320.19 495.38,-427.35 40.47,-22.83 93.23,129.23 109.88,85.84 27.1,-70.63 -98.26,-154.81 -58.66,-219.27 33.15,-53.96 157.32,-48.69 189.94,5.6 58.72,97.72 -80.88,285.9 18.63,341.5 104.82,58.57 219.12,-98.28 328.68,-147.42l0 0z" />
  </g>
  <!-- 下田市 -->
  <g id="shimoda" title="下田市" fill="rgb(60, 128, 74)">
    <path d="M20872.45 16038.69c-28.55,123.16 -9,268.96 -85.67,369.49 -70.39,92.3 -227.66,74.16 -312.85,153.02 -108.68,100.61 -199.62,228.19 -249.54,367.63 -22.47,62.77 32.28,129.38 48.42,194.08l0 0c173.92,35.53 359.26,35.14 521.75,106.57 57.44,25.25 110.44,103.41 93,163.68 -19.6,67.72 -138.85,58.42 -174.84,119.04 -21.04,35.44 1.38,93.19 33.48,119.04 71.78,57.79 236.64,20.9 252.96,111.6 25.11,139.58 -161.14,251.57 -162.1,393.38 -0.67,98.88 105.16,167.49 157.74,251.23l0 0c9.86,-13.27 21.01,-28.65 34.11,-31.96 97.77,-24.79 30.94,-92.13 73.56,-128.76 15.58,-13.38 59.32,-54.21 51.21,-80.24 -4.87,-15.61 -16.47,-69.44 -6.52,-80.25l132.22 -117.56c10.74,-9.55 82.59,-51.29 87.53,-48.52 42.76,23.98 20.98,3.3 67.97,-11.2 29.04,-8.95 6.67,-29.03 -11.17,-34.52 -45.87,-14.11 44.29,-67.37 53.07,-56.92 17.33,20.64 54.01,37.96 54.01,69.05l0.93 0.93c49.33,-12.2 40,-146.58 56.79,-177.28 6.45,-11.78 3.1,-57.49 24.21,-55.99 44.53,3.18 88.91,36.7 124.77,57.85 53.12,31.35 -24.36,54.01 -38.17,93.31 -23.58,67.13 19.6,105.86 -25.14,177.28 -51.53,82.28 81.87,30.02 96.83,90.51 36.53,0 6.2,-72.79 38.18,-79.31 16.22,-3.31 48.32,28.92 71.7,28.92 18.18,0 91.05,37.32 83.8,-12.13 -1.69,-11.58 6.36,-80.99 13.96,-87.7 5.29,-4.68 39.51,21.96 48.42,24.26 18.91,4.87 37.91,17.72 57.73,17.72 14.52,0 -37.24,-51.45 -33.52,-70.91 5.6,-29.24 12.11,-54.92 12.11,-85.84 -29.68,0 -30.92,23.27 -65.18,4.66 -21.87,-11.87 -16.48,-36.57 -27.94,-55.98 -8.73,-14.77 -23.21,-12.42 -36.31,-19.59 -23.35,-12.8 -62.26,-38.3 -25.14,-56.92 25.54,-12.8 65.73,-10.38 43.76,-41.99 -23.07,-33.17 79.27,-45.68 19.56,-77.44 -32.08,-17.07 -76.36,-32.99 -76.36,-78.38 -7.83,-70.72 0.25,-112.93 16.76,-180.08 6.47,-26.35 29.65,-61.28 41.9,-86.78 11.13,-23.14 10.03,-49.06 20.49,-69.98 17.2,0 36.63,0.88 54,-2.8 25.45,-5.38 0,-29.13 0,-44.79 24.14,-15.08 101.5,-60.85 101.5,-93.3 0,-25.65 -7.44,-27.92 -16.76,-50.39l0 0c-81.02,-3.11 -188.24,50.41 -243.07,-9.33 -100.55,-109.56 -59.12,-302.82 -150.84,-419.88 -53.03,-67.69 -197.37,-11.69 -243.95,-83.98 -49.58,-76.94 80.12,-212.05 13.03,-274.32 -83.57,-77.56 -228.47,-10.14 -340.78,-29.86 -94.07,-16.51 -183.74,-52.24 -275.61,-78.37l0 0z" />
  </g>
  <!-- 南伊豆町 -->
  <g id="minamiizu" title="南伊豆町" fill="rgb(60, 128, 74)">    
    <path d="M18792.83 17242.48c156.88,-87.13 301.7,-200.88 470.65,-261.4 51.47,-18.43 111.23,11.05 160.15,35.46 110.22,55.01 188.76,184.37 311,199.68 180.65,22.63 358.78,-62.2 538.18,-93.31l0 0c173.92,35.53 359.26,35.14 521.75,106.57 57.44,25.25 110.44,103.41 93,163.68 -19.6,67.72 -138.85,58.42 -174.84,119.04 -21.04,35.44 1.38,93.19 33.48,119.04 71.78,57.79 236.64,20.9 252.96,111.6 25.11,139.58 -161.14,251.57 -162.1,393.38 -0.67,98.88 105.16,167.49 157.74,251.23l0 0c-9.86,13.26 -18.45,24.43 -26.41,19.36 -26.14,-16.67 -45.03,-55.81 -80.08,-59.71 -65.92,-7.33 -58.02,-40.68 -106.15,22.39 -32.81,43.01 -32.06,11.16 6.52,57.85 32.6,39.47 -41.54,26.73 -59.59,49.45 -10.45,13.17 0.74,30.85 -25.14,27.06 -18.79,-2.76 -26.46,-18.72 -45.62,-17.73 -20.71,1.06 -38.48,26.13 -64.25,26.13 -58.01,0 3.89,103.45 -71.7,90.51 -19.34,0 -34.15,-19.57 -49.35,-28.93 -11.38,-7 -24,26.18 -31.65,34.52 -31.29,34.06 -67.75,34.4 -94.98,65.32 -18.32,20.82 -42.43,23.33 -69.83,23.33 -42.53,0 -39.02,24.38 -45.63,58.78 -10.55,54.97 -67.04,62.14 -67.04,123.16 -1.19,0.3 -1.6,0.64 -2.79,0.94 -7.43,-22.79 -125.3,-85.85 -157.36,-85.85 -65.81,0 -124.71,41.25 -78.22,-55.98 6.06,-12.67 -24.2,-78.55 -24.2,-104.5 -19.4,0 -49.16,31.72 -81.94,31.72 -47.31,0 -51.21,-22.58 -51.21,-63.45 15.19,-35.63 -16,-79.63 -34.46,-106.37 -19.22,-27.82 -34.11,-75.21 -62.38,-53.18l-83.8 65.31c-25.67,20.01 -94.76,39.49 -94.05,-13.06l1.87 -136.23c0.76,-56.35 -78.14,-114.17 -132.22,-102.64 -35.24,7.52 -63.33,-14.75 -81.01,-44.78 -15.81,-26.87 -71.03,-87.1 -67.97,-116.64 5.38,-51.92 -14.46,-92.37 35.38,-92.37 67.99,0 80.5,17.82 64.25,-71.85 23.05,-17.28 157.23,-29.67 155.5,-52.25 -1.75,-22.92 -56.17,-136.53 -69.84,-129.69 -20,10.02 -70.05,90.18 -98.7,54.11 -38.03,-47.89 -21.67,-74.27 -34.45,-125.96 -5.27,-21.31 -34.84,-47.79 -47.49,-67.18 -27.69,-42.4 -17.51,-45.83 -76.35,-38.26 -46.32,5.95 -0.64,-78.01 -57.73,-103.57 -45.54,-20.4 -60.56,-95.41 -109.87,-64.38 -39.09,24.59 -163.59,90.47 -182.5,35.46 -7.67,-22.34 -37.9,-32.99 -12.1,-51.32 30.1,-21.4 29.37,-29.29 22.34,-64.38 0,-30.16 -4.75,-55.72 -9.77,-80.11l0 0z" />
  </g>
  <!-- 熱海市 -->
  <g id="atami" title="熱海市" fill="rgb(60, 128, 74)">
    <path d="M24573.69 11697.13c-25.08,-5.42 -45.1,-34.14 -75.43,-21.47 -11.33,4.74 -49.31,4.3 -50.28,13.07 -1.14,10.2 13.81,18.82 19.56,26.12 14.62,18.53 7.08,40.17 12.1,60.65 1.8,7.32 18.5,21.47 26.07,23.33 15.66,3.84 37.12,-21.68 51.22,-27.99 7.2,-3.23 19.49,-4.39 26.07,-9.33 8.37,-6.3 13.5,-28.38 3.72,-34.53l-13.03 -29.85zm-1971.21 -694.93c57.72,113.76 115.44,227.52 173.16,341.29 0,0 -98.69,82.11 -98.69,91.44 0,9.33 33.52,289.25 33.52,289.25 65.17,41.05 130.35,82.11 195.53,123.17l0 0c102.43,21.77 204.99,87.7 307.27,65.31 85.53,-18.73 108.94,-162.52 195.53,-175.41 67.69,-10.08 110.27,81.1 165.4,121.65l0 0c-3.02,-28.69 -7.95,-56.73 -5.19,-86.2 6.83,-73.13 37.23,-185.56 -60.53,-204.34 -25.45,-4.88 -85.5,57.85 -135.01,57.85 -47.05,0 -128.85,-14.79 -149.91,-56.91 2.6,2.75 2.79,4.41 6.52,3.73 -13.34,-17.95 -33.74,-74.24 -40.97,-96.11 -2.29,-6.96 21.19,-17.96 27.93,-26.12 27.99,-33.92 92.31,-160.89 84.74,-200.61 -9.52,-49.89 -31,-95.86 -52.15,-141.83 -31.69,-68.89 0.96,-43.54 42.83,-73.71 38.27,-27.59 32.59,-80.12 32.59,-125.03 0,-41.95 -73.39,27.85 -60.52,-69.05 35.35,-31.34 102.81,-105.24 121.98,-149.29 25.72,-59.12 25.03,-182.69 107.08,-200.61 72.26,-15.79 145.99,-160.1 187.15,-222.07 67.6,-52.7 36.82,-114.63 67.97,-180.08 2.3,-4.83 5.09,-9.69 8.3,-14.52l0 0 -199.28 9.85c-45.11,29.64 -167.06,15.81 -211.36,-12.13 -49.55,-31.26 -61.95,-78.35 -125.7,-61.58 -29.41,7.73 -73.64,29.06 -104.29,19.59 -68.64,-21.2 -50.66,-68.64 -139.66,-45.72 -32.81,8.44 -58.18,0.69 -77.29,-27.99 -17.49,-26.23 -49.42,-11.09 -78.21,-15.86 -24.07,7.53 -185.03,23.7 -191.81,-3.73l6.69 7.15c58.29,131.97 165.6,251.95 174.88,395.93 3.4,52.76 -121.92,16.32 -145.26,63.77 -26.55,53.97 32.35,118.75 26.04,178.56 -15.04,142.45 -59.52,280.24 -89.28,420.36l0 0z" />
  </g>
 </g>
</svg>
